<svg width="358" height="138" viewBox="0 0 358 138" fill="none" xmlns="http://www.w3.org/2000/svg">
<path d="M60.2397 117.133L22.9427 95.5937C22.0485 95.0754 21.306 94.3314 20.7896 93.4361C20.2732 92.5407 20.0009 91.5255 20 90.492V47.4315C19.9979 46.395 20.2687 45.3762 20.7852 44.4775C21.3018 43.5789 22.0459 42.8321 22.9427 42.3123L60.2397 20.7908C61.137 20.2727 62.1549 20 63.191 20C64.2272 20 65.2451 20.2727 66.1424 20.7908L103.422 42.3297C104.319 42.8495 105.063 43.5963 105.579 44.4949C106.096 45.3936 106.367 46.4124 106.365 47.4489V90.492C106.367 91.5285 106.096 92.5473 105.579 93.4459C105.063 94.3446 104.319 95.0913 103.422 95.6111L66.1424 117.133C65.2451 117.651 64.2272 117.923 63.191 117.923C62.1549 117.923 61.137 117.651 60.2397 117.133Z" fill="#07BEB8"/>
<path d="M36.6113 37.3672H52.2788V58.1671H48.9472V40.6988H39.8529V97.0655H48.9472V79.6873H52.2788V100.397H36.6113V37.3672ZM42.8243 43.31H46.0658V60.9584H73.5288V37.3672H76.6803V64.1099H42.8243V43.31ZM86.3149 40.6988H83.2535V64.38H80.0119V37.3672H89.4664V100.397H86.3149V40.6988ZM73.5288 76.8059H46.0658V94.9045H42.7342V73.4743H76.6803V97.0655H80.0119V70.5029H42.7342V67.3514H83.2535V100.397H73.5288V76.8059Z" fill="white"/>
<path d="M129.058 56.8206V81.0126C129.058 81.3268 129.597 81.4166 129.597 81.0126V68.9391H137.855C138.304 68.9391 138.304 68.3107 137.855 68.3107H129.597V57.1796H139.651C139.965 57.1796 140.055 56.5962 139.651 56.5962H129.328C129.193 56.5962 129.058 56.641 129.058 56.8206ZM131.886 83.7505H126.724C126.5 83.7505 126.365 83.571 126.365 83.3466V54.5315C126.365 54.3071 126.5 54.1276 126.724 54.1276H141.985C142.209 54.1276 142.389 54.3071 142.389 54.5315V59.334C142.389 59.5585 142.209 59.738 141.985 59.738H132.29V65.8421H139.83C140.055 65.8421 140.189 66.0216 140.189 66.2461V71.1383C140.189 71.3627 140.055 71.5423 139.83 71.5423H132.29V83.3466C132.29 83.571 132.11 83.7505 131.886 83.7505ZM154.074 83.7505C153.849 83.7505 153.715 83.571 153.715 83.3466V54.5315C153.715 54.3071 153.849 54.1276 154.074 54.1276H169.334C169.559 54.1276 169.738 54.3071 169.738 54.5315V59.334C169.738 59.5585 169.559 59.738 169.334 59.738H159.639V65.8421H167.18C167.404 65.8421 167.539 66.0216 167.539 66.2461V71.1383C167.539 71.3627 167.404 71.5423 167.18 71.5423H159.639V78.1401H169.334C169.559 78.1401 169.738 78.3197 169.738 78.5441V83.3466C169.738 83.571 169.559 83.7505 169.334 83.7505H154.074ZM156.318 56.9552V80.8331C156.318 81.1024 156.498 81.1922 156.677 81.1922H167C167.404 81.1922 167.314 80.6536 167 80.6536H156.902V68.9391H165.16C165.429 68.9391 165.429 68.3107 165.16 68.3107H156.902V57.1796H167C167.314 57.1796 167.404 56.5962 167 56.5962H156.677C156.498 56.5962 156.318 56.7308 156.318 56.9552ZM192.465 65.5728C195.876 67.1886 200.319 69.747 200.319 74.3699C200.319 75.7164 200.095 78.3197 198.614 80.5189C196.953 82.9875 194.35 84.1994 190.759 84.1994C186.944 84.1994 182.501 82.3591 181.109 78.185C181.064 78.0504 181.109 77.9157 181.244 77.8259L185.373 74.2802C185.553 74.1455 185.822 74.1455 185.957 74.3699C186.046 74.5943 186.226 74.9534 186.45 75.4022C187.124 76.7936 188.739 78.185 190.535 78.185C191.926 78.185 193.811 77.422 193.811 75.2676C193.811 73.203 190.984 72.036 189.233 71.3627C187.213 70.5548 185.149 69.5225 183.398 67.9965C181.558 66.2909 180.66 64.4058 180.66 62.1617C180.66 56.5513 185.822 53.7236 190.714 53.7236C194.574 53.7236 197.447 55.7434 199.332 59.738C199.422 59.9175 199.332 60.1419 199.197 60.2317L195.203 63.0145C195.023 63.1042 194.933 63.1042 194.754 62.8798C193.228 60.6805 191.881 59.6482 190.086 59.6482C189.143 59.6482 186.944 60.0073 186.944 61.668C186.944 63.6877 190.669 64.72 192.465 65.5728ZM184.296 77.9606C185.418 80.2047 188.515 81.5064 191.029 81.5064C194.305 81.5064 196.953 79.2622 197.312 75.8511C197.761 71.6769 194.485 69.8816 191.253 68.2658L189.817 67.6374C186.495 66.1563 184.072 65.0342 184.072 61.9373C184.072 58.5261 187.213 56.9552 190.31 56.9552C193.138 56.9552 194.619 58.6159 195.382 59.6482C195.652 60.0073 196.1 59.6931 195.831 59.334C195.068 58.3915 193.452 56.4166 190.31 56.4166C186.765 56.4166 183.533 58.1671 183.533 61.9373C183.533 65.3035 186.226 66.6051 189.637 68.176L191.029 68.8493C195.472 70.9588 197.088 72.9337 196.729 75.8062C196.055 80.3843 192.555 80.9678 191.029 80.9678C187.662 80.9678 185.418 78.948 184.745 77.6913C184.52 77.4669 184.206 77.6913 184.296 77.9606ZM216.717 59.738H210.344C210.12 59.738 209.94 59.5585 209.94 59.334V54.5315C209.94 54.3071 210.12 54.1276 210.344 54.1276H229.06C229.285 54.1276 229.464 54.3071 229.464 54.5315V59.334C229.464 59.5585 229.285 59.738 229.06 59.738H222.687V83.3466C222.687 83.571 222.507 83.7505 222.283 83.7505H217.121C216.897 83.7505 216.717 83.571 216.717 83.3466V59.738ZM226.322 56.5962H212.768C212.454 56.5962 212.454 57.1796 212.768 57.1796H219.41V80.9678C219.41 81.2819 219.994 81.2819 219.994 80.9678V57.1796H226.322C226.771 57.1796 226.726 56.5962 226.322 56.5962ZM241.15 83.7505C240.925 83.7505 240.791 83.571 240.791 83.3466V54.5315C240.791 54.3071 240.925 54.1276 241.15 54.1276H246.266C246.491 54.1276 246.67 54.3071 246.67 54.5315V83.3466C246.67 83.571 246.491 83.7505 246.266 83.7505H241.15ZM243.484 56.8206V81.0126C243.484 81.4166 243.977 81.4166 243.977 81.0126V56.8206C243.977 56.5064 243.484 56.5064 243.484 56.8206ZM263.787 54.3969L268.724 72.9785L273.795 54.3969C273.885 54.2622 273.975 54.1276 274.155 54.1276H279.271C279.541 54.1276 279.72 54.352 279.63 54.6213L271.865 83.4812C271.776 83.6608 271.686 83.7505 271.506 83.7505H265.941C265.806 83.7505 265.672 83.6608 265.627 83.4812L257.862 54.6213C257.817 54.352 257.997 54.1276 258.266 54.1276H263.427C263.607 54.1276 263.697 54.2622 263.787 54.3969ZM268.634 80.6536L261.138 56.7308C261.004 56.3717 260.51 56.5962 260.645 56.8655L268.095 80.8331C268.275 81.5064 268.993 81.5512 269.217 80.8331L276.399 56.8655C276.488 56.5962 275.995 56.4166 275.905 56.7308L268.634 80.6536ZM296.522 54.3969C296.567 54.2622 296.657 54.1276 296.836 54.1276H302.402C302.581 54.1276 302.671 54.2622 302.716 54.3969L310.481 83.2568C310.526 83.5261 310.346 83.7505 310.077 83.7505H304.96C304.826 83.7505 304.691 83.6608 304.646 83.4812L302.896 77.1976H296.343L294.637 83.4812C294.592 83.6608 294.502 83.7505 294.323 83.7505H289.161C288.892 83.7505 288.712 83.5261 288.757 83.2568L296.522 54.3969ZM297.779 71.632H301.504L299.574 64.8547L297.779 71.632ZM304.691 74.2802L306.755 81.0126C306.845 81.2819 307.339 81.2371 307.204 80.878L300.023 57.0001C299.888 56.4166 299.125 56.3717 298.991 57.0001L292.034 80.878C291.899 81.1922 292.393 81.3268 292.527 81.0575L294.502 74.2802H304.691ZM294.637 73.6967L299.529 57.1796L304.511 73.6967H294.637ZM327.283 54.1276C327.507 54.1276 327.687 54.3071 327.687 54.5315V78.0952H337.382C337.606 78.0952 337.786 78.2748 337.786 78.4992V83.3466C337.786 83.571 337.606 83.7505 337.382 83.7505H322.166C321.942 83.7505 321.807 83.571 321.807 83.3466V54.5315C321.807 54.3071 321.942 54.1276 322.166 54.1276H327.283ZM324.5 56.8655V81.0126C324.5 81.1024 324.59 81.2371 324.769 81.2371H335.137C335.496 81.2371 335.496 80.6536 335.137 80.6536H324.994V56.8655C324.994 56.5513 324.5 56.5064 324.5 56.8655Z" fill="white"/>
</svg>
