<svg width="250" height="251" viewBox="0 0 250 251" fill="none" xmlns="http://www.w3.org/2000/svg">
<path id="Vector" d="M0 0.222656H4.38596V4.60862H0V0.222656ZM4.38596 0.222656H8.77193V4.60862H4.38596V0.222656ZM8.77193 0.222656H13.1579V4.60862H8.77193V0.222656ZM13.1579 0.222656H17.5439V4.60862H13.1579V0.222656ZM17.5439 0.222656H21.9298V4.60862H17.5439V0.222656ZM21.9298 0.222656H26.3158V4.60862H21.9298V0.222656ZM26.3158 0.222656H30.7018V4.60862H26.3158V0.222656ZM39.4737 0.222656H43.8596V4.60862H39.4737V0.222656ZM43.8596 0.222656H48.2456V4.60862H43.8596V0.222656ZM48.2456 0.222656H52.6316V4.60862H48.2456V0.222656ZM52.6316 0.222656H57.0175V4.60862H52.6316V0.222656ZM61.4035 0.222656H65.7895V4.60862H61.4035V0.222656ZM74.5614 0.222656H78.9474V4.60862H74.5614V0.222656ZM96.4912 0.222656H100.877V4.60862H96.4912V0.222656ZM100.877 0.222656H105.263V4.60862H100.877V0.222656ZM114.035 0.222656H118.421V4.60862H114.035V0.222656ZM127.193 0.222656H131.579V4.60862H127.193V0.222656ZM149.123 0.222656H153.509V4.60862H149.123V0.222656ZM157.895 0.222656H162.281V4.60862H157.895V0.222656ZM166.667 0.222656H171.053V4.60862H166.667V0.222656ZM184.211 0.222656H188.596V4.60862H184.211V0.222656ZM197.368 0.222656H201.754V4.60862H197.368V0.222656ZM201.754 0.222656H206.14V4.60862H201.754V0.222656ZM206.14 0.222656H210.526V4.60862H206.14V0.222656ZM219.298 0.222656H223.684V4.60862H219.298V0.222656ZM223.684 0.222656H228.07V4.60862H223.684V0.222656ZM228.07 0.222656H232.456V4.60862H228.07V0.222656ZM232.456 0.222656H236.842V4.60862H232.456V0.222656ZM236.842 0.222656H241.228V4.60862H236.842V0.222656ZM241.228 0.222656H245.614V4.60862H241.228V0.222656ZM245.614 0.222656H250V4.60862H245.614V0.222656ZM0 4.60862H4.38596V8.99459H0V4.60862ZM26.3158 4.60862H30.7018V8.99459H26.3158V4.60862ZM35.0877 4.60862H39.4737V8.99459H35.0877V4.60862ZM39.4737 4.60862H43.8596V8.99459H39.4737V4.60862ZM74.5614 4.60862H78.9474V8.99459H74.5614V4.60862ZM83.3333 4.60862H87.7193V8.99459H83.3333V4.60862ZM87.7193 4.60862H92.1053V8.99459H87.7193V4.60862ZM92.1053 4.60862H96.4912V8.99459H92.1053V4.60862ZM96.4912 4.60862H100.877V8.99459H96.4912V4.60862ZM100.877 4.60862H105.263V8.99459H100.877V4.60862ZM114.035 4.60862H118.421V8.99459H114.035V4.60862ZM122.807 4.60862H127.193V8.99459H122.807V4.60862ZM127.193 4.60862H131.579V8.99459H127.193V4.60862ZM135.965 4.60862H140.351V8.99459H135.965V4.60862ZM140.351 4.60862H144.737V8.99459H140.351V4.60862ZM149.123 4.60862H153.509V8.99459H149.123V4.60862ZM162.281 4.60862H166.667V8.99459H162.281V4.60862ZM171.053 4.60862H175.439V8.99459H171.053V4.60862ZM175.439 4.60862H179.825V8.99459H175.439V4.60862ZM179.825 4.60862H184.211V8.99459H179.825V4.60862ZM184.211 4.60862H188.596V8.99459H184.211V4.60862ZM197.368 4.60862H201.754V8.99459H197.368V4.60862ZM206.14 4.60862H210.526V8.99459H206.14V4.60862ZM219.298 4.60862H223.684V8.99459H219.298V4.60862ZM245.614 4.60862H250V8.99459H245.614V4.60862ZM0 8.99459H4.38596V13.3806H0V8.99459ZM8.77193 8.99459H13.1579V13.3806H8.77193V8.99459ZM13.1579 8.99459H17.5439V13.3806H13.1579V8.99459ZM17.5439 8.99459H21.9298V13.3806H17.5439V8.99459ZM26.3158 8.99459H30.7018V13.3806H26.3158V8.99459ZM39.4737 8.99459H43.8596V13.3806H39.4737V8.99459ZM43.8596 8.99459H48.2456V13.3806H43.8596V8.99459ZM48.2456 8.99459H52.6316V13.3806H48.2456V8.99459ZM57.0175 8.99459H61.4035V13.3806H57.0175V8.99459ZM65.7895 8.99459H70.1754V13.3806H65.7895V8.99459ZM70.1754 8.99459H74.5614V13.3806H70.1754V8.99459ZM78.9474 8.99459H83.3333V13.3806H78.9474V8.99459ZM87.7193 8.99459H92.1053V13.3806H87.7193V8.99459ZM105.263 8.99459H109.649V13.3806H105.263V8.99459ZM114.035 8.99459H118.421V13.3806H114.035V8.99459ZM122.807 8.99459H127.193V13.3806H122.807V8.99459ZM131.579 8.99459H135.965V13.3806H131.579V8.99459ZM135.965 8.99459H140.351V13.3806H135.965V8.99459ZM140.351 8.99459H144.737V13.3806H140.351V8.99459ZM144.737 8.99459H149.123V13.3806H144.737V8.99459ZM149.123 8.99459H153.509V13.3806H149.123V8.99459ZM162.281 8.99459H166.667V13.3806H162.281V8.99459ZM166.667 8.99459H171.053V13.3806H166.667V8.99459ZM171.053 8.99459H175.439V13.3806H171.053V8.99459ZM179.825 8.99459H184.211V13.3806H179.825V8.99459ZM184.211 8.99459H188.596V13.3806H184.211V8.99459ZM192.982 8.99459H197.368V13.3806H192.982V8.99459ZM197.368 8.99459H201.754V13.3806H197.368V8.99459ZM201.754 8.99459H206.14V13.3806H201.754V8.99459ZM206.14 8.99459H210.526V13.3806H206.14V8.99459ZM219.298 8.99459H223.684V13.3806H219.298V8.99459ZM228.07 8.99459H232.456V13.3806H228.07V8.99459ZM232.456 8.99459H236.842V13.3806H232.456V8.99459ZM236.842 8.99459H241.228V13.3806H236.842V8.99459ZM245.614 8.99459H250V13.3806H245.614V8.99459ZM0 13.3806H4.38596V17.7665H0V13.3806ZM8.77193 13.3806H13.1579V17.7665H8.77193V13.3806ZM13.1579 13.3806H17.5439V17.7665H13.1579V13.3806ZM17.5439 13.3806H21.9298V17.7665H17.5439V13.3806ZM26.3158 13.3806H30.7018V17.7665H26.3158V13.3806ZM35.0877 13.3806H39.4737V17.7665H35.0877V13.3806ZM39.4737 13.3806H43.8596V17.7665H39.4737V13.3806ZM43.8596 13.3806H48.2456V17.7665H43.8596V13.3806ZM48.2456 13.3806H52.6316V17.7665H48.2456V13.3806ZM57.0175 13.3806H61.4035V17.7665H57.0175V13.3806ZM70.1754 13.3806H74.5614V17.7665H70.1754V13.3806ZM74.5614 13.3806H78.9474V17.7665H74.5614V13.3806ZM83.3333 13.3806H87.7193V17.7665H83.3333V13.3806ZM105.263 13.3806H109.649V17.7665H105.263V13.3806ZM109.649 13.3806H114.035V17.7665H109.649V13.3806ZM114.035 13.3806H118.421V17.7665H114.035V13.3806ZM127.193 13.3806H131.579V17.7665H127.193V13.3806ZM135.965 13.3806H140.351V17.7665H135.965V13.3806ZM153.509 13.3806H157.895V17.7665H153.509V13.3806ZM157.895 13.3806H162.281V17.7665H157.895V13.3806ZM162.281 13.3806H166.667V17.7665H162.281V13.3806ZM166.667 13.3806H171.053V17.7665H166.667V13.3806ZM171.053 13.3806H175.439V17.7665H171.053V13.3806ZM175.439 13.3806H179.825V17.7665H175.439V13.3806ZM179.825 13.3806H184.211V17.7665H179.825V13.3806ZM184.211 13.3806H188.596V17.7665H184.211V13.3806ZM188.596 13.3806H192.982V17.7665H188.596V13.3806ZM192.982 13.3806H197.368V17.7665H192.982V13.3806ZM197.368 13.3806H201.754V17.7665H197.368V13.3806ZM206.14 13.3806H210.526V17.7665H206.14V13.3806ZM219.298 13.3806H223.684V17.7665H219.298V13.3806ZM228.07 13.3806H232.456V17.7665H228.07V13.3806ZM232.456 13.3806H236.842V17.7665H232.456V13.3806ZM236.842 13.3806H241.228V17.7665H236.842V13.3806ZM245.614 13.3806H250V17.7665H245.614V13.3806ZM0 17.7665H4.38596V22.1525H0V17.7665ZM8.77193 17.7665H13.1579V22.1525H8.77193V17.7665ZM13.1579 17.7665H17.5439V22.1525H13.1579V17.7665ZM17.5439 17.7665H21.9298V22.1525H17.5439V17.7665ZM26.3158 17.7665H30.7018V22.1525H26.3158V17.7665ZM35.0877 17.7665H39.4737V22.1525H35.0877V17.7665ZM48.2456 17.7665H52.6316V22.1525H48.2456V17.7665ZM65.7895 17.7665H70.1754V22.1525H65.7895V17.7665ZM74.5614 17.7665H78.9474V22.1525H74.5614V17.7665ZM78.9474 17.7665H83.3333V22.1525H78.9474V17.7665ZM83.3333 17.7665H87.7193V22.1525H83.3333V17.7665ZM87.7193 17.7665H92.1053V22.1525H87.7193V17.7665ZM92.1053 17.7665H96.4912V22.1525H92.1053V17.7665ZM96.4912 17.7665H100.877V22.1525H96.4912V17.7665ZM100.877 17.7665H105.263V22.1525H100.877V17.7665ZM105.263 17.7665H109.649V22.1525H105.263V17.7665ZM114.035 17.7665H118.421V22.1525H114.035V17.7665ZM118.421 17.7665H122.807V22.1525H118.421V17.7665ZM122.807 17.7665H127.193V22.1525H122.807V17.7665ZM127.193 17.7665H131.579V22.1525H127.193V17.7665ZM131.579 17.7665H135.965V22.1525H131.579V17.7665ZM135.965 17.7665H140.351V22.1525H135.965V17.7665ZM162.281 17.7665H166.667V22.1525H162.281V17.7665ZM166.667 17.7665H171.053V22.1525H166.667V17.7665ZM171.053 17.7665H175.439V22.1525H171.053V17.7665ZM175.439 17.7665H179.825V22.1525H175.439V17.7665ZM179.825 17.7665H184.211V22.1525H179.825V17.7665ZM184.211 17.7665H188.596V22.1525H184.211V17.7665ZM188.596 17.7665H192.982V22.1525H188.596V17.7665ZM197.368 17.7665H201.754V22.1525H197.368V17.7665ZM206.14 17.7665H210.526V22.1525H206.14V17.7665ZM219.298 17.7665H223.684V22.1525H219.298V17.7665ZM228.07 17.7665H232.456V22.1525H228.07V17.7665ZM232.456 17.7665H236.842V22.1525H232.456V17.7665ZM236.842 17.7665H241.228V22.1525H236.842V17.7665ZM245.614 17.7665H250V22.1525H245.614V17.7665ZM0 22.1525H4.38596V26.5384H0V22.1525ZM26.3158 22.1525H30.7018V26.5384H26.3158V22.1525ZM39.4737 22.1525H43.8596V26.5384H39.4737V22.1525ZM57.0175 22.1525H61.4035V26.5384H57.0175V22.1525ZM61.4035 22.1525H65.7895V26.5384H61.4035V22.1525ZM65.7895 22.1525H70.1754V26.5384H65.7895V22.1525ZM74.5614 22.1525H78.9474V26.5384H74.5614V22.1525ZM83.3333 22.1525H87.7193V26.5384H83.3333V22.1525ZM96.4912 22.1525H100.877V26.5384H96.4912V22.1525ZM105.263 22.1525H109.649V26.5384H105.263V22.1525ZM114.035 22.1525H118.421V26.5384H114.035V22.1525ZM131.579 22.1525H135.965V26.5384H131.579V22.1525ZM135.965 22.1525H140.351V26.5384H135.965V22.1525ZM149.123 22.1525H153.509V26.5384H149.123V22.1525ZM157.895 22.1525H162.281V26.5384H157.895V22.1525ZM166.667 22.1525H171.053V26.5384H166.667V22.1525ZM171.053 22.1525H175.439V26.5384H171.053V22.1525ZM188.596 22.1525H192.982V26.5384H188.596V22.1525ZM192.982 22.1525H197.368V26.5384H192.982V22.1525ZM201.754 22.1525H206.14V26.5384H201.754V22.1525ZM219.298 22.1525H223.684V26.5384H219.298V22.1525ZM245.614 22.1525H250V26.5384H245.614V22.1525ZM0 26.5384H4.38596V30.9244H0V26.5384ZM4.38596 26.5384H8.77193V30.9244H4.38596V26.5384ZM8.77193 26.5384H13.1579V30.9244H8.77193V26.5384ZM13.1579 26.5384H17.5439V30.9244H13.1579V26.5384ZM17.5439 26.5384H21.9298V30.9244H17.5439V26.5384ZM21.9298 26.5384H26.3158V30.9244H21.9298V26.5384ZM26.3158 26.5384H30.7018V30.9244H26.3158V26.5384ZM35.0877 26.5384H39.4737V30.9244H35.0877V26.5384ZM43.8596 26.5384H48.2456V30.9244H43.8596V26.5384ZM52.6316 26.5384H57.0175V30.9244H52.6316V26.5384ZM61.4035 26.5384H65.7895V30.9244H61.4035V26.5384ZM70.1754 26.5384H74.5614V30.9244H70.1754V26.5384ZM78.9474 26.5384H83.3333V30.9244H78.9474V26.5384ZM87.7193 26.5384H92.1053V30.9244H87.7193V26.5384ZM96.4912 26.5384H100.877V30.9244H96.4912V26.5384ZM105.263 26.5384H109.649V30.9244H105.263V26.5384ZM114.035 26.5384H118.421V30.9244H114.035V26.5384ZM122.807 26.5384H127.193V30.9244H122.807V26.5384ZM131.579 26.5384H135.965V30.9244H131.579V26.5384ZM140.351 26.5384H144.737V30.9244H140.351V26.5384ZM149.123 26.5384H153.509V30.9244H149.123V26.5384ZM157.895 26.5384H162.281V30.9244H157.895V26.5384ZM166.667 26.5384H171.053V30.9244H166.667V26.5384ZM175.439 26.5384H179.825V30.9244H175.439V26.5384ZM184.211 26.5384H188.596V30.9244H184.211V26.5384ZM192.982 26.5384H197.368V30.9244H192.982V26.5384ZM201.754 26.5384H206.14V30.9244H201.754V26.5384ZM210.526 26.5384H214.912V30.9244H210.526V26.5384ZM219.298 26.5384H223.684V30.9244H219.298V26.5384ZM223.684 26.5384H228.07V30.9244H223.684V26.5384ZM228.07 26.5384H232.456V30.9244H228.07V26.5384ZM232.456 26.5384H236.842V30.9244H232.456V26.5384ZM236.842 26.5384H241.228V30.9244H236.842V26.5384ZM241.228 26.5384H245.614V30.9244H241.228V26.5384ZM245.614 26.5384H250V30.9244H245.614V26.5384ZM35.0877 30.9244H39.4737V35.3104H35.0877V30.9244ZM43.8596 30.9244H48.2456V35.3104H43.8596V30.9244ZM52.6316 30.9244H57.0175V35.3104H52.6316V30.9244ZM65.7895 30.9244H70.1754V35.3104H65.7895V30.9244ZM74.5614 30.9244H78.9474V35.3104H74.5614V30.9244ZM87.7193 30.9244H92.1053V35.3104H87.7193V30.9244ZM92.1053 30.9244H96.4912V35.3104H92.1053V30.9244ZM100.877 30.9244H105.263V35.3104H100.877V30.9244ZM105.263 30.9244H109.649V35.3104H105.263V30.9244ZM114.035 30.9244H118.421V35.3104H114.035V30.9244ZM131.579 30.9244H135.965V35.3104H131.579V30.9244ZM140.351 30.9244H144.737V35.3104H140.351V30.9244ZM153.509 30.9244H157.895V35.3104H153.509V30.9244ZM157.895 30.9244H162.281V35.3104H157.895V30.9244ZM171.053 30.9244H175.439V35.3104H171.053V30.9244ZM175.439 30.9244H179.825V35.3104H175.439V30.9244ZM179.825 30.9244H184.211V35.3104H179.825V30.9244ZM188.596 30.9244H192.982V35.3104H188.596V30.9244ZM192.982 30.9244H197.368V35.3104H192.982V30.9244ZM206.14 30.9244H210.526V35.3104H206.14V30.9244ZM4.38596 35.3104H8.77193V39.6963H4.38596V35.3104ZM13.1579 35.3104H17.5439V39.6963H13.1579V35.3104ZM17.5439 35.3104H21.9298V39.6963H17.5439V35.3104ZM21.9298 35.3104H26.3158V39.6963H21.9298V35.3104ZM26.3158 35.3104H30.7018V39.6963H26.3158V35.3104ZM35.0877 35.3104H39.4737V39.6963H35.0877V35.3104ZM48.2456 35.3104H52.6316V39.6963H48.2456V35.3104ZM61.4035 35.3104H65.7895V39.6963H61.4035V35.3104ZM70.1754 35.3104H74.5614V39.6963H70.1754V35.3104ZM78.9474 35.3104H83.3333V39.6963H78.9474V35.3104ZM83.3333 35.3104H87.7193V39.6963H83.3333V35.3104ZM96.4912 35.3104H100.877V39.6963H96.4912V35.3104ZM100.877 35.3104H105.263V39.6963H100.877V35.3104ZM105.263 35.3104H109.649V39.6963H105.263V35.3104ZM109.649 35.3104H114.035V39.6963H109.649V35.3104ZM114.035 35.3104H118.421V39.6963H114.035V35.3104ZM118.421 35.3104H122.807V39.6963H118.421V35.3104ZM122.807 35.3104H127.193V39.6963H122.807V35.3104ZM127.193 35.3104H131.579V39.6963H127.193V35.3104ZM131.579 35.3104H135.965V39.6963H131.579V35.3104ZM149.123 35.3104H153.509V39.6963H149.123V35.3104ZM157.895 35.3104H162.281V39.6963H157.895V35.3104ZM162.281 35.3104H166.667V39.6963H162.281V35.3104ZM166.667 35.3104H171.053V39.6963H166.667V35.3104ZM175.439 35.3104H179.825V39.6963H175.439V35.3104ZM179.825 35.3104H184.211V39.6963H179.825V35.3104ZM184.211 35.3104H188.596V39.6963H184.211V35.3104ZM192.982 35.3104H197.368V39.6963H192.982V35.3104ZM201.754 35.3104H206.14V39.6963H201.754V35.3104ZM206.14 35.3104H210.526V39.6963H206.14V35.3104ZM214.912 35.3104H219.298V39.6963H214.912V35.3104ZM219.298 35.3104H223.684V39.6963H219.298V35.3104ZM228.07 35.3104H232.456V39.6963H228.07V35.3104ZM232.456 35.3104H236.842V39.6963H232.456V35.3104ZM241.228 35.3104H245.614V39.6963H241.228V35.3104ZM4.38596 39.6963H8.77193V44.0823H4.38596V39.6963ZM8.77193 39.6963H13.1579V44.0823H8.77193V39.6963ZM17.5439 39.6963H21.9298V44.0823H17.5439V39.6963ZM21.9298 39.6963H26.3158V44.0823H21.9298V39.6963ZM30.7018 39.6963H35.0877V44.0823H30.7018V39.6963ZM48.2456 39.6963H52.6316V44.0823H48.2456V39.6963ZM65.7895 39.6963H70.1754V44.0823H65.7895V39.6963ZM70.1754 39.6963H74.5614V44.0823H70.1754V39.6963ZM74.5614 39.6963H78.9474V44.0823H74.5614V39.6963ZM83.3333 39.6963H87.7193V44.0823H83.3333V39.6963ZM87.7193 39.6963H92.1053V44.0823H87.7193V39.6963ZM96.4912 39.6963H100.877V44.0823H96.4912V39.6963ZM109.649 39.6963H114.035V44.0823H109.649V39.6963ZM122.807 39.6963H127.193V44.0823H122.807V39.6963ZM127.193 39.6963H131.579V44.0823H127.193V39.6963ZM140.351 39.6963H144.737V44.0823H140.351V39.6963ZM144.737 39.6963H149.123V44.0823H144.737V39.6963ZM149.123 39.6963H153.509V44.0823H149.123V39.6963ZM153.509 39.6963H157.895V44.0823H153.509V39.6963ZM157.895 39.6963H162.281V44.0823H157.895V39.6963ZM162.281 39.6963H166.667V44.0823H162.281V39.6963ZM171.053 39.6963H175.439V44.0823H171.053V39.6963ZM179.825 39.6963H184.211V44.0823H179.825V39.6963ZM184.211 39.6963H188.596V44.0823H184.211V39.6963ZM201.754 39.6963H206.14V44.0823H201.754V39.6963ZM210.526 39.6963H214.912V44.0823H210.526V39.6963ZM219.298 39.6963H223.684V44.0823H219.298V39.6963ZM223.684 39.6963H228.07V44.0823H223.684V39.6963ZM228.07 39.6963H232.456V44.0823H228.07V39.6963ZM232.456 39.6963H236.842V44.0823H232.456V39.6963ZM236.842 39.6963H241.228V44.0823H236.842V39.6963ZM241.228 39.6963H245.614V44.0823H241.228V39.6963ZM245.614 39.6963H250V44.0823H245.614V39.6963ZM4.38596 44.0823H8.77193V48.4683H4.38596V44.0823ZM8.77193 44.0823H13.1579V48.4683H8.77193V44.0823ZM13.1579 44.0823H17.5439V48.4683H13.1579V44.0823ZM17.5439 44.0823H21.9298V48.4683H17.5439V44.0823ZM21.9298 44.0823H26.3158V48.4683H21.9298V44.0823ZM26.3158 44.0823H30.7018V48.4683H26.3158V44.0823ZM30.7018 44.0823H35.0877V48.4683H30.7018V44.0823ZM35.0877 44.0823H39.4737V48.4683H35.0877V44.0823ZM43.8596 44.0823H48.2456V48.4683H43.8596V44.0823ZM48.2456 44.0823H52.6316V48.4683H48.2456V44.0823ZM61.4035 44.0823H65.7895V48.4683H61.4035V44.0823ZM65.7895 44.0823H70.1754V48.4683H65.7895V44.0823ZM70.1754 44.0823H74.5614V48.4683H70.1754V44.0823ZM83.3333 44.0823H87.7193V48.4683H83.3333V44.0823ZM87.7193 44.0823H92.1053V48.4683H87.7193V44.0823ZM92.1053 44.0823H96.4912V48.4683H92.1053V44.0823ZM114.035 44.0823H118.421V48.4683H114.035V44.0823ZM118.421 44.0823H122.807V48.4683H118.421V44.0823ZM122.807 44.0823H127.193V48.4683H122.807V44.0823ZM140.351 44.0823H144.737V48.4683H140.351V44.0823ZM144.737 44.0823H149.123V48.4683H144.737V44.0823ZM149.123 44.0823H153.509V48.4683H149.123V44.0823ZM153.509 44.0823H157.895V48.4683H153.509V44.0823ZM157.895 44.0823H162.281V48.4683H157.895V44.0823ZM166.667 44.0823H171.053V48.4683H166.667V44.0823ZM171.053 44.0823H175.439V48.4683H171.053V44.0823ZM179.825 44.0823H184.211V48.4683H179.825V44.0823ZM184.211 44.0823H188.596V48.4683H184.211V44.0823ZM188.596 44.0823H192.982V48.4683H188.596V44.0823ZM210.526 44.0823H214.912V48.4683H210.526V44.0823ZM228.07 44.0823H232.456V48.4683H228.07V44.0823ZM232.456 44.0823H236.842V48.4683H232.456V44.0823ZM236.842 44.0823H241.228V48.4683H236.842V44.0823ZM241.228 44.0823H245.614V48.4683H241.228V44.0823ZM245.614 44.0823H250V48.4683H245.614V44.0823ZM8.77193 48.4683H13.1579V52.8542H8.77193V48.4683ZM13.1579 48.4683H17.5439V52.8542H13.1579V48.4683ZM21.9298 48.4683H26.3158V52.8542H21.9298V48.4683ZM30.7018 48.4683H35.0877V52.8542H30.7018V48.4683ZM35.0877 48.4683H39.4737V52.8542H35.0877V48.4683ZM39.4737 48.4683H43.8596V52.8542H39.4737V48.4683ZM52.6316 48.4683H57.0175V52.8542H52.6316V48.4683ZM57.0175 48.4683H61.4035V52.8542H57.0175V48.4683ZM70.1754 48.4683H74.5614V52.8542H70.1754V48.4683ZM78.9474 48.4683H83.3333V52.8542H78.9474V48.4683ZM96.4912 48.4683H100.877V52.8542H96.4912V48.4683ZM105.263 48.4683H109.649V52.8542H105.263V48.4683ZM118.421 48.4683H122.807V52.8542H118.421V48.4683ZM127.193 48.4683H131.579V52.8542H127.193V48.4683ZM131.579 48.4683H135.965V52.8542H131.579V48.4683ZM140.351 48.4683H144.737V52.8542H140.351V48.4683ZM144.737 48.4683H149.123V52.8542H144.737V48.4683ZM162.281 48.4683H166.667V52.8542H162.281V48.4683ZM166.667 48.4683H171.053V52.8542H166.667V48.4683ZM184.211 48.4683H188.596V52.8542H184.211V48.4683ZM188.596 48.4683H192.982V52.8542H188.596V48.4683ZM192.982 48.4683H197.368V52.8542H192.982V48.4683ZM201.754 48.4683H206.14V52.8542H201.754V48.4683ZM223.684 48.4683H228.07V52.8542H223.684V48.4683ZM236.842 48.4683H241.228V52.8542H236.842V48.4683ZM241.228 48.4683H245.614V52.8542H241.228V48.4683ZM245.614 48.4683H250V52.8542H245.614V48.4683ZM0 52.8542H4.38596V57.2402H0V52.8542ZM4.38596 52.8542H8.77193V57.2402H4.38596V52.8542ZM17.5439 52.8542H21.9298V57.2402H17.5439V52.8542ZM26.3158 52.8542H30.7018V57.2402H26.3158V52.8542ZM30.7018 52.8542H35.0877V57.2402H30.7018V52.8542ZM48.2456 52.8542H52.6316V57.2402H48.2456V52.8542ZM57.0175 52.8542H61.4035V57.2402H57.0175V52.8542ZM65.7895 52.8542H70.1754V57.2402H65.7895V52.8542ZM78.9474 52.8542H83.3333V57.2402H78.9474V52.8542ZM83.3333 52.8542H87.7193V57.2402H83.3333V52.8542ZM96.4912 52.8542H100.877V57.2402H96.4912V52.8542ZM100.877 52.8542H105.263V57.2402H100.877V52.8542ZM105.263 52.8542H109.649V57.2402H105.263V52.8542ZM114.035 52.8542H118.421V57.2402H114.035V52.8542ZM127.193 52.8542H131.579V57.2402H127.193V52.8542ZM131.579 52.8542H135.965V57.2402H131.579V52.8542ZM135.965 52.8542H140.351V57.2402H135.965V52.8542ZM140.351 52.8542H144.737V57.2402H140.351V52.8542ZM149.123 52.8542H153.509V57.2402H149.123V52.8542ZM157.895 52.8542H162.281V57.2402H157.895V52.8542ZM162.281 52.8542H166.667V57.2402H162.281V52.8542ZM171.053 52.8542H175.439V57.2402H171.053V52.8542ZM175.439 52.8542H179.825V57.2402H175.439V52.8542ZM188.596 52.8542H192.982V57.2402H188.596V52.8542ZM192.982 52.8542H197.368V57.2402H192.982V52.8542ZM206.14 52.8542H210.526V57.2402H206.14V52.8542ZM228.07 52.8542H232.456V57.2402H228.07V52.8542ZM245.614 52.8542H250V57.2402H245.614V52.8542ZM0 57.2402H4.38596V61.6262H0V57.2402ZM4.38596 57.2402H8.77193V61.6262H4.38596V57.2402ZM8.77193 57.2402H13.1579V61.6262H8.77193V57.2402ZM17.5439 57.2402H21.9298V61.6262H17.5439V57.2402ZM21.9298 57.2402H26.3158V61.6262H21.9298V57.2402ZM30.7018 57.2402H35.0877V61.6262H30.7018V57.2402ZM35.0877 57.2402H39.4737V61.6262H35.0877V57.2402ZM39.4737 57.2402H43.8596V61.6262H39.4737V57.2402ZM61.4035 57.2402H65.7895V61.6262H61.4035V57.2402ZM70.1754 57.2402H74.5614V61.6262H70.1754V57.2402ZM74.5614 57.2402H78.9474V61.6262H74.5614V57.2402ZM78.9474 57.2402H83.3333V61.6262H78.9474V57.2402ZM83.3333 57.2402H87.7193V61.6262H83.3333V57.2402ZM87.7193 57.2402H92.1053V61.6262H87.7193V57.2402ZM96.4912 57.2402H100.877V61.6262H96.4912V57.2402ZM100.877 57.2402H105.263V61.6262H100.877V57.2402ZM105.263 57.2402H109.649V61.6262H105.263V57.2402ZM118.421 57.2402H122.807V61.6262H118.421V57.2402ZM131.579 57.2402H135.965V61.6262H131.579V57.2402ZM135.965 57.2402H140.351V61.6262H135.965V57.2402ZM144.737 57.2402H149.123V61.6262H144.737V57.2402ZM166.667 57.2402H171.053V61.6262H166.667V57.2402ZM179.825 57.2402H184.211V61.6262H179.825V57.2402ZM184.211 57.2402H188.596V61.6262H184.211V57.2402ZM188.596 57.2402H192.982V61.6262H188.596V57.2402ZM192.982 57.2402H197.368V61.6262H192.982V57.2402ZM206.14 57.2402H210.526V61.6262H206.14V57.2402ZM210.526 57.2402H214.912V61.6262H210.526V57.2402ZM219.298 57.2402H223.684V61.6262H219.298V57.2402ZM232.456 57.2402H236.842V61.6262H232.456V57.2402ZM4.38596 61.6262H8.77193V66.0121H4.38596V61.6262ZM13.1579 61.6262H17.5439V66.0121H13.1579V61.6262ZM17.5439 61.6262H21.9298V66.0121H17.5439V61.6262ZM21.9298 61.6262H26.3158V66.0121H21.9298V61.6262ZM26.3158 61.6262H30.7018V66.0121H26.3158V61.6262ZM30.7018 61.6262H35.0877V66.0121H30.7018V61.6262ZM43.8596 61.6262H48.2456V66.0121H43.8596V61.6262ZM52.6316 61.6262H57.0175V66.0121H52.6316V61.6262ZM57.0175 61.6262H61.4035V66.0121H57.0175V61.6262ZM61.4035 61.6262H65.7895V66.0121H61.4035V61.6262ZM65.7895 61.6262H70.1754V66.0121H65.7895V61.6262ZM74.5614 61.6262H78.9474V66.0121H74.5614V61.6262ZM78.9474 61.6262H83.3333V66.0121H78.9474V61.6262ZM83.3333 61.6262H87.7193V66.0121H83.3333V61.6262ZM100.877 61.6262H105.263V66.0121H100.877V61.6262ZM114.035 61.6262H118.421V66.0121H114.035V61.6262ZM127.193 61.6262H131.579V66.0121H127.193V61.6262ZM131.579 61.6262H135.965V66.0121H131.579V61.6262ZM144.737 61.6262H149.123V66.0121H144.737V61.6262ZM153.509 61.6262H157.895V66.0121H153.509V61.6262ZM162.281 61.6262H166.667V66.0121H162.281V61.6262ZM166.667 61.6262H171.053V66.0121H166.667V61.6262ZM175.439 61.6262H179.825V66.0121H175.439V61.6262ZM188.596 61.6262H192.982V66.0121H188.596V61.6262ZM192.982 61.6262H197.368V66.0121H192.982V61.6262ZM210.526 61.6262H214.912V66.0121H210.526V61.6262ZM214.912 61.6262H219.298V66.0121H214.912V61.6262ZM219.298 61.6262H223.684V66.0121H219.298V61.6262ZM228.07 61.6262H232.456V66.0121H228.07V61.6262ZM232.456 61.6262H236.842V66.0121H232.456V61.6262ZM236.842 61.6262H241.228V66.0121H236.842V61.6262ZM0 66.0121H4.38596V70.3981H0V66.0121ZM4.38596 66.0121H8.77193V70.3981H4.38596V66.0121ZM17.5439 66.0121H21.9298V70.3981H17.5439V66.0121ZM30.7018 66.0121H35.0877V70.3981H30.7018V66.0121ZM35.0877 66.0121H39.4737V70.3981H35.0877V66.0121ZM39.4737 66.0121H43.8596V70.3981H39.4737V66.0121ZM43.8596 66.0121H48.2456V70.3981H43.8596V66.0121ZM48.2456 66.0121H52.6316V70.3981H48.2456V66.0121ZM52.6316 66.0121H57.0175V70.3981H52.6316V66.0121ZM70.1754 66.0121H74.5614V70.3981H70.1754V66.0121ZM83.3333 66.0121H87.7193V70.3981H83.3333V66.0121ZM92.1053 66.0121H96.4912V70.3981H92.1053V66.0121ZM100.877 66.0121H105.263V70.3981H100.877V66.0121ZM109.649 66.0121H114.035V70.3981H109.649V66.0121ZM114.035 66.0121H118.421V70.3981H114.035V66.0121ZM122.807 66.0121H127.193V70.3981H122.807V66.0121ZM140.351 66.0121H144.737V70.3981H140.351V66.0121ZM144.737 66.0121H149.123V70.3981H144.737V66.0121ZM149.123 66.0121H153.509V70.3981H149.123V66.0121ZM162.281 66.0121H166.667V70.3981H162.281V66.0121ZM166.667 66.0121H171.053V70.3981H166.667V66.0121ZM171.053 66.0121H175.439V70.3981H171.053V66.0121ZM188.596 66.0121H192.982V70.3981H188.596V66.0121ZM206.14 66.0121H210.526V70.3981H206.14V66.0121ZM210.526 66.0121H214.912V70.3981H210.526V66.0121ZM219.298 66.0121H223.684V70.3981H219.298V66.0121ZM223.684 66.0121H228.07V70.3981H223.684V66.0121ZM236.842 66.0121H241.228V70.3981H236.842V66.0121ZM0 70.3981H4.38596V74.7841H0V70.3981ZM4.38596 70.3981H8.77193V74.7841H4.38596V70.3981ZM13.1579 70.3981H17.5439V74.7841H13.1579V70.3981ZM26.3158 70.3981H30.7018V74.7841H26.3158V70.3981ZM30.7018 70.3981H35.0877V74.7841H30.7018V70.3981ZM43.8596 70.3981H48.2456V74.7841H43.8596V70.3981ZM65.7895 70.3981H70.1754V74.7841H65.7895V70.3981ZM70.1754 70.3981H74.5614V74.7841H70.1754V70.3981ZM74.5614 70.3981H78.9474V74.7841H74.5614V70.3981ZM78.9474 70.3981H83.3333V74.7841H78.9474V70.3981ZM96.4912 70.3981H100.877V74.7841H96.4912V70.3981ZM118.421 70.3981H122.807V74.7841H118.421V70.3981ZM122.807 70.3981H127.193V74.7841H122.807V70.3981ZM131.579 70.3981H135.965V74.7841H131.579V70.3981ZM135.965 70.3981H140.351V74.7841H135.965V70.3981ZM140.351 70.3981H144.737V74.7841H140.351V70.3981ZM144.737 70.3981H149.123V74.7841H144.737V70.3981ZM157.895 70.3981H162.281V74.7841H157.895V70.3981ZM162.281 70.3981H166.667V74.7841H162.281V70.3981ZM171.053 70.3981H175.439V74.7841H171.053V70.3981ZM179.825 70.3981H184.211V74.7841H179.825V70.3981ZM184.211 70.3981H188.596V74.7841H184.211V70.3981ZM192.982 70.3981H197.368V74.7841H192.982V70.3981ZM210.526 70.3981H214.912V74.7841H210.526V70.3981ZM214.912 70.3981H219.298V74.7841H214.912V70.3981ZM223.684 70.3981H228.07V74.7841H223.684V70.3981ZM245.614 70.3981H250V74.7841H245.614V70.3981ZM4.38596 74.7841H8.77193V79.17H4.38596V74.7841ZM8.77193 74.7841H13.1579V79.17H8.77193V74.7841ZM13.1579 74.7841H17.5439V79.17H13.1579V74.7841ZM39.4737 74.7841H43.8596V79.17H39.4737V74.7841ZM43.8596 74.7841H48.2456V79.17H43.8596V74.7841ZM61.4035 74.7841H65.7895V79.17H61.4035V74.7841ZM65.7895 74.7841H70.1754V79.17H65.7895V74.7841ZM70.1754 74.7841H74.5614V79.17H70.1754V74.7841ZM74.5614 74.7841H78.9474V79.17H74.5614V74.7841ZM78.9474 74.7841H83.3333V79.17H78.9474V74.7841ZM92.1053 74.7841H96.4912V79.17H92.1053V74.7841ZM105.263 74.7841H109.649V79.17H105.263V74.7841ZM109.649 74.7841H114.035V79.17H109.649V74.7841ZM118.421 74.7841H122.807V79.17H118.421V74.7841ZM122.807 74.7841H127.193V79.17H122.807V74.7841ZM131.579 74.7841H135.965V79.17H131.579V74.7841ZM135.965 74.7841H140.351V79.17H135.965V74.7841ZM144.737 74.7841H149.123V79.17H144.737V74.7841ZM149.123 74.7841H153.509V79.17H149.123V74.7841ZM157.895 74.7841H162.281V79.17H157.895V74.7841ZM162.281 74.7841H166.667V79.17H162.281V74.7841ZM179.825 74.7841H184.211V79.17H179.825V74.7841ZM184.211 74.7841H188.596V79.17H184.211V74.7841ZM188.596 74.7841H192.982V79.17H188.596V74.7841ZM197.368 74.7841H201.754V79.17H197.368V74.7841ZM201.754 74.7841H206.14V79.17H201.754V74.7841ZM210.526 74.7841H214.912V79.17H210.526V74.7841ZM223.684 74.7841H228.07V79.17H223.684V74.7841ZM228.07 74.7841H232.456V79.17H228.07V74.7841ZM232.456 74.7841H236.842V79.17H232.456V74.7841ZM245.614 74.7841H250V79.17H245.614V74.7841ZM4.38596 79.17H8.77193V83.556H4.38596V79.17ZM8.77193 79.17H13.1579V83.556H8.77193V79.17ZM13.1579 79.17H17.5439V83.556H13.1579V79.17ZM26.3158 79.17H30.7018V83.556H26.3158V79.17ZM57.0175 79.17H61.4035V83.556H57.0175V79.17ZM61.4035 79.17H65.7895V83.556H61.4035V79.17ZM65.7895 79.17H70.1754V83.556H65.7895V79.17ZM70.1754 79.17H74.5614V83.556H70.1754V79.17ZM78.9474 79.17H83.3333V83.556H78.9474V79.17ZM87.7193 79.17H92.1053V83.556H87.7193V79.17ZM100.877 79.17H105.263V83.556H100.877V79.17ZM131.579 79.17H135.965V83.556H131.579V79.17ZM140.351 79.17H144.737V83.556H140.351V79.17ZM144.737 79.17H149.123V83.556H144.737V79.17ZM162.281 79.17H166.667V83.556H162.281V79.17ZM179.825 79.17H184.211V83.556H179.825V79.17ZM188.596 79.17H192.982V83.556H188.596V79.17ZM197.368 79.17H201.754V83.556H197.368V79.17ZM210.526 79.17H214.912V83.556H210.526V79.17ZM214.912 79.17H219.298V83.556H214.912V79.17ZM236.842 79.17H241.228V83.556H236.842V79.17ZM245.614 79.17H250V83.556H245.614V79.17ZM4.38596 83.556H8.77193V87.942H4.38596V83.556ZM13.1579 83.556H17.5439V87.942H13.1579V83.556ZM17.5439 83.556H21.9298V87.942H17.5439V83.556ZM30.7018 83.556H35.0877V87.942H30.7018V83.556ZM39.4737 83.556H43.8596V87.942H39.4737V83.556ZM52.6316 83.556H57.0175V87.942H52.6316V83.556ZM57.0175 83.556H61.4035V87.942H57.0175V83.556ZM70.1754 83.556H74.5614V87.942H70.1754V83.556ZM74.5614 83.556H78.9474V87.942H74.5614V83.556ZM78.9474 83.556H83.3333V87.942H78.9474V83.556ZM87.7193 83.556H92.1053V87.942H87.7193V83.556ZM92.1053 83.556H96.4912V87.942H92.1053V83.556ZM96.4912 83.556H100.877V87.942H96.4912V83.556ZM100.877 83.556H105.263V87.942H100.877V83.556ZM114.035 83.556H118.421V87.942H114.035V83.556ZM127.193 83.556H131.579V87.942H127.193V83.556ZM135.965 83.556H140.351V87.942H135.965V83.556ZM144.737 83.556H149.123V87.942H144.737V83.556ZM175.439 83.556H179.825V87.942H175.439V83.556ZM184.211 83.556H188.596V87.942H184.211V83.556ZM188.596 83.556H192.982V87.942H188.596V83.556ZM201.754 83.556H206.14V87.942H201.754V83.556ZM206.14 83.556H210.526V87.942H206.14V83.556ZM219.298 83.556H223.684V87.942H219.298V83.556ZM228.07 83.556H232.456V87.942H228.07V83.556ZM232.456 83.556H236.842V87.942H232.456V83.556ZM236.842 83.556H241.228V87.942H236.842V83.556ZM241.228 83.556H245.614V87.942H241.228V83.556ZM4.38596 87.942H8.77193V92.3279H4.38596V87.942ZM13.1579 87.942H17.5439V92.3279H13.1579V87.942ZM17.5439 87.942H21.9298V92.3279H17.5439V87.942ZM21.9298 87.942H26.3158V92.3279H21.9298V87.942ZM26.3158 87.942H30.7018V92.3279H26.3158V87.942ZM43.8596 87.942H48.2456V92.3279H43.8596V87.942ZM48.2456 87.942H52.6316V92.3279H48.2456V87.942ZM52.6316 87.942H57.0175V92.3279H52.6316V87.942ZM61.4035 87.942H65.7895V92.3279H61.4035V87.942ZM70.1754 87.942H74.5614V92.3279H70.1754V87.942ZM74.5614 87.942H78.9474V92.3279H74.5614V87.942ZM78.9474 87.942H83.3333V92.3279H78.9474V87.942ZM83.3333 87.942H87.7193V92.3279H83.3333V87.942ZM87.7193 87.942H92.1053V92.3279H87.7193V87.942ZM92.1053 87.942H96.4912V92.3279H92.1053V87.942ZM96.4912 87.942H100.877V92.3279H96.4912V87.942ZM100.877 87.942H105.263V92.3279H100.877V87.942ZM105.263 87.942H109.649V92.3279H105.263V87.942ZM109.649 87.942H114.035V92.3279H109.649V87.942ZM114.035 87.942H118.421V92.3279H114.035V87.942ZM122.807 87.942H127.193V92.3279H122.807V87.942ZM127.193 87.942H131.579V92.3279H127.193V87.942ZM131.579 87.942H135.965V92.3279H131.579V87.942ZM135.965 87.942H140.351V92.3279H135.965V87.942ZM140.351 87.942H144.737V92.3279H140.351V87.942ZM144.737 87.942H149.123V92.3279H144.737V87.942ZM157.895 87.942H162.281V92.3279H157.895V87.942ZM166.667 87.942H171.053V92.3279H166.667V87.942ZM171.053 87.942H175.439V92.3279H171.053V87.942ZM175.439 87.942H179.825V92.3279H175.439V87.942ZM179.825 87.942H184.211V92.3279H179.825V87.942ZM184.211 87.942H188.596V92.3279H184.211V87.942ZM197.368 87.942H201.754V92.3279H197.368V87.942ZM201.754 87.942H206.14V92.3279H201.754V87.942ZM206.14 87.942H210.526V92.3279H206.14V87.942ZM223.684 87.942H228.07V92.3279H223.684V87.942ZM228.07 87.942H232.456V92.3279H228.07V87.942ZM245.614 87.942H250V92.3279H245.614V87.942ZM4.38596 92.3279H8.77193V96.7139H4.38596V92.3279ZM8.77193 92.3279H13.1579V96.7139H8.77193V92.3279ZM13.1579 92.3279H17.5439V96.7139H13.1579V92.3279ZM21.9298 92.3279H26.3158V96.7139H21.9298V92.3279ZM30.7018 92.3279H35.0877V96.7139H30.7018V92.3279ZM43.8596 92.3279H48.2456V96.7139H43.8596V92.3279ZM48.2456 92.3279H52.6316V96.7139H48.2456V92.3279ZM52.6316 92.3279H57.0175V96.7139H52.6316V92.3279ZM57.0175 92.3279H61.4035V96.7139H57.0175V92.3279ZM65.7895 92.3279H70.1754V96.7139H65.7895V92.3279ZM74.5614 92.3279H78.9474V96.7139H74.5614V92.3279ZM83.3333 92.3279H87.7193V96.7139H83.3333V92.3279ZM100.877 92.3279H105.263V96.7139H100.877V92.3279ZM105.263 92.3279H109.649V96.7139H105.263V92.3279ZM109.649 92.3279H114.035V96.7139H109.649V92.3279ZM114.035 92.3279H118.421V96.7139H114.035V92.3279ZM122.807 92.3279H127.193V96.7139H122.807V92.3279ZM131.579 92.3279H135.965V96.7139H131.579V92.3279ZM144.737 92.3279H149.123V96.7139H144.737V92.3279ZM149.123 92.3279H153.509V96.7139H149.123V92.3279ZM153.509 92.3279H157.895V96.7139H153.509V92.3279ZM157.895 92.3279H162.281V96.7139H157.895V92.3279ZM162.281 92.3279H166.667V96.7139H162.281V92.3279ZM166.667 92.3279H171.053V96.7139H166.667V92.3279ZM171.053 92.3279H175.439V96.7139H171.053V92.3279ZM179.825 92.3279H184.211V96.7139H179.825V92.3279ZM184.211 92.3279H188.596V96.7139H184.211V92.3279ZM188.596 92.3279H192.982V96.7139H188.596V92.3279ZM192.982 92.3279H197.368V96.7139H192.982V92.3279ZM197.368 92.3279H201.754V96.7139H197.368V92.3279ZM201.754 92.3279H206.14V96.7139H201.754V92.3279ZM206.14 92.3279H210.526V96.7139H206.14V92.3279ZM210.526 92.3279H214.912V96.7139H210.526V92.3279ZM219.298 92.3279H223.684V96.7139H219.298V92.3279ZM236.842 92.3279H241.228V96.7139H236.842V92.3279ZM245.614 92.3279H250V96.7139H245.614V92.3279ZM4.38596 96.7139H8.77193V101.1H4.38596V96.7139ZM8.77193 96.7139H13.1579V101.1H8.77193V96.7139ZM17.5439 96.7139H21.9298V101.1H17.5439V96.7139ZM21.9298 96.7139H26.3158V101.1H21.9298V96.7139ZM26.3158 96.7139H30.7018V101.1H26.3158V96.7139ZM30.7018 96.7139H35.0877V101.1H30.7018V96.7139ZM52.6316 96.7139H57.0175V101.1H52.6316V96.7139ZM70.1754 96.7139H74.5614V101.1H70.1754V96.7139ZM83.3333 96.7139H87.7193V101.1H83.3333V96.7139ZM87.7193 96.7139H92.1053V101.1H87.7193V96.7139ZM105.263 96.7139H109.649V101.1H105.263V96.7139ZM118.421 96.7139H122.807V101.1H118.421V96.7139ZM127.193 96.7139H131.579V101.1H127.193V96.7139ZM131.579 96.7139H135.965V101.1H131.579V96.7139ZM135.965 96.7139H140.351V101.1H135.965V96.7139ZM140.351 96.7139H144.737V101.1H140.351V96.7139ZM144.737 96.7139H149.123V101.1H144.737V96.7139ZM157.895 96.7139H162.281V101.1H157.895V96.7139ZM166.667 96.7139H171.053V101.1H166.667V96.7139ZM179.825 96.7139H184.211V101.1H179.825V96.7139ZM197.368 96.7139H201.754V101.1H197.368V96.7139ZM201.754 96.7139H206.14V101.1H201.754V96.7139ZM214.912 96.7139H219.298V101.1H214.912V96.7139ZM228.07 96.7139H232.456V101.1H228.07V96.7139ZM232.456 96.7139H236.842V101.1H232.456V96.7139ZM13.1579 101.1H17.5439V105.486H13.1579V101.1ZM17.5439 101.1H21.9298V105.486H17.5439V101.1ZM21.9298 101.1H26.3158V105.486H21.9298V101.1ZM35.0877 101.1H39.4737V105.486H35.0877V101.1ZM39.4737 101.1H43.8596V105.486H39.4737V101.1ZM43.8596 101.1H48.2456V105.486H43.8596V101.1ZM48.2456 101.1H52.6316V105.486H48.2456V101.1ZM57.0175 101.1H61.4035V105.486H57.0175V101.1ZM70.1754 101.1H74.5614V105.486H70.1754V101.1ZM87.7193 101.1H92.1053V105.486H87.7193V101.1ZM92.1053 101.1H96.4912V105.486H92.1053V101.1ZM96.4912 101.1H100.877V105.486H96.4912V101.1ZM109.649 101.1H114.035V105.486H109.649V101.1ZM127.193 101.1H131.579V105.486H127.193V101.1ZM131.579 101.1H135.965V105.486H131.579V101.1ZM135.965 101.1H140.351V105.486H135.965V101.1ZM144.737 101.1H149.123V105.486H144.737V101.1ZM153.509 101.1H157.895V105.486H153.509V101.1ZM162.281 101.1H166.667V105.486H162.281V101.1ZM171.053 101.1H175.439V105.486H171.053V101.1ZM175.439 101.1H179.825V105.486H175.439V101.1ZM179.825 101.1H184.211V105.486H179.825V101.1ZM184.211 101.1H188.596V105.486H184.211V101.1ZM192.982 101.1H197.368V105.486H192.982V101.1ZM197.368 101.1H201.754V105.486H197.368V101.1ZM201.754 101.1H206.14V105.486H201.754V101.1ZM210.526 101.1H214.912V105.486H210.526V101.1ZM214.912 101.1H219.298V105.486H214.912V101.1ZM223.684 101.1H228.07V105.486H223.684V101.1ZM232.456 101.1H236.842V105.486H232.456V101.1ZM236.842 101.1H241.228V105.486H236.842V101.1ZM4.38596 105.486H8.77193V109.872H4.38596V105.486ZM8.77193 105.486H13.1579V109.872H8.77193V105.486ZM13.1579 105.486H17.5439V109.872H13.1579V105.486ZM26.3158 105.486H30.7018V109.872H26.3158V105.486ZM30.7018 105.486H35.0877V109.872H30.7018V105.486ZM35.0877 105.486H39.4737V109.872H35.0877V105.486ZM39.4737 105.486H43.8596V109.872H39.4737V105.486ZM57.0175 105.486H61.4035V109.872H57.0175V105.486ZM78.9474 105.486H83.3333V109.872H78.9474V105.486ZM87.7193 105.486H92.1053V109.872H87.7193V105.486ZM96.4912 105.486H100.877V109.872H96.4912V105.486ZM100.877 105.486H105.263V109.872H100.877V105.486ZM109.649 105.486H114.035V109.872H109.649V105.486ZM114.035 105.486H118.421V109.872H114.035V105.486ZM118.421 105.486H122.807V109.872H118.421V105.486ZM127.193 105.486H131.579V109.872H127.193V105.486ZM135.965 105.486H140.351V109.872H135.965V105.486ZM144.737 105.486H149.123V109.872H144.737V105.486ZM157.895 105.486H162.281V109.872H157.895V105.486ZM162.281 105.486H166.667V109.872H162.281V105.486ZM166.667 105.486H171.053V109.872H166.667V105.486ZM171.053 105.486H175.439V109.872H171.053V105.486ZM175.439 105.486H179.825V109.872H175.439V105.486ZM184.211 105.486H188.596V109.872H184.211V105.486ZM188.596 105.486H192.982V109.872H188.596V105.486ZM192.982 105.486H197.368V109.872H192.982V105.486ZM197.368 105.486H201.754V109.872H197.368V105.486ZM201.754 105.486H206.14V109.872H201.754V105.486ZM206.14 105.486H210.526V109.872H206.14V105.486ZM214.912 105.486H219.298V109.872H214.912V105.486ZM223.684 105.486H228.07V109.872H223.684V105.486ZM228.07 105.486H232.456V109.872H228.07V105.486ZM241.228 105.486H245.614V109.872H241.228V105.486ZM245.614 105.486H250V109.872H245.614V105.486ZM0 109.872H4.38596V114.258H0V109.872ZM4.38596 109.872H8.77193V114.258H4.38596V109.872ZM17.5439 109.872H21.9298V114.258H17.5439V109.872ZM21.9298 109.872H26.3158V114.258H21.9298V109.872ZM30.7018 109.872H35.0877V114.258H30.7018V109.872ZM39.4737 109.872H43.8596V114.258H39.4737V109.872ZM57.0175 109.872H61.4035V114.258H57.0175V109.872ZM61.4035 109.872H65.7895V114.258H61.4035V109.872ZM70.1754 109.872H74.5614V114.258H70.1754V109.872ZM74.5614 109.872H78.9474V114.258H74.5614V109.872ZM96.4912 109.872H100.877V114.258H96.4912V109.872ZM100.877 109.872H105.263V114.258H100.877V109.872ZM118.421 109.872H122.807V114.258H118.421V109.872ZM144.737 109.872H149.123V114.258H144.737V109.872ZM149.123 109.872H153.509V114.258H149.123V109.872ZM166.667 109.872H171.053V114.258H166.667V109.872ZM171.053 109.872H175.439V114.258H171.053V109.872ZM184.211 109.872H188.596V114.258H184.211V109.872ZM192.982 109.872H197.368V114.258H192.982V109.872ZM197.368 109.872H201.754V114.258H197.368V109.872ZM206.14 109.872H210.526V114.258H206.14V109.872ZM210.526 109.872H214.912V114.258H210.526V109.872ZM214.912 109.872H219.298V114.258H214.912V109.872ZM219.298 109.872H223.684V114.258H219.298V109.872ZM228.07 109.872H232.456V114.258H228.07V109.872ZM241.228 109.872H245.614V114.258H241.228V109.872ZM245.614 109.872H250V114.258H245.614V109.872ZM4.38596 114.258H8.77193V118.644H4.38596V114.258ZM13.1579 114.258H17.5439V118.644H13.1579V114.258ZM17.5439 114.258H21.9298V118.644H17.5439V114.258ZM21.9298 114.258H26.3158V118.644H21.9298V114.258ZM26.3158 114.258H30.7018V118.644H26.3158V114.258ZM30.7018 114.258H35.0877V118.644H30.7018V114.258ZM35.0877 114.258H39.4737V118.644H35.0877V114.258ZM74.5614 114.258H78.9474V118.644H74.5614V114.258ZM78.9474 114.258H83.3333V118.644H78.9474V114.258ZM83.3333 114.258H87.7193V118.644H83.3333V114.258ZM96.4912 114.258H100.877V118.644H96.4912V114.258ZM105.263 114.258H109.649V118.644H105.263V114.258ZM109.649 114.258H114.035V118.644H109.649V114.258ZM114.035 114.258H118.421V118.644H114.035V114.258ZM118.421 114.258H122.807V118.644H118.421V114.258ZM122.807 114.258H127.193V118.644H122.807V114.258ZM127.193 114.258H131.579V118.644H127.193V114.258ZM131.579 114.258H135.965V118.644H131.579V114.258ZM135.965 114.258H140.351V118.644H135.965V114.258ZM140.351 114.258H144.737V118.644H140.351V114.258ZM144.737 114.258H149.123V118.644H144.737V114.258ZM149.123 114.258H153.509V118.644H149.123V114.258ZM153.509 114.258H157.895V118.644H153.509V114.258ZM157.895 114.258H162.281V118.644H157.895V114.258ZM162.281 114.258H166.667V118.644H162.281V114.258ZM166.667 114.258H171.053V118.644H166.667V114.258ZM171.053 114.258H175.439V118.644H171.053V114.258ZM175.439 114.258H179.825V118.644H175.439V114.258ZM179.825 114.258H184.211V118.644H179.825V114.258ZM184.211 114.258H188.596V118.644H184.211V114.258ZM197.368 114.258H201.754V118.644H197.368V114.258ZM210.526 114.258H214.912V118.644H210.526V114.258ZM214.912 114.258H219.298V118.644H214.912V114.258ZM219.298 114.258H223.684V118.644H219.298V114.258ZM223.684 114.258H228.07V118.644H223.684V114.258ZM228.07 114.258H232.456V118.644H228.07V114.258ZM236.842 114.258H241.228V118.644H236.842V114.258ZM0 118.644H4.38596V123.03H0V118.644ZM4.38596 118.644H8.77193V123.03H4.38596V118.644ZM8.77193 118.644H13.1579V123.03H8.77193V118.644ZM13.1579 118.644H17.5439V123.03H13.1579V118.644ZM17.5439 118.644H21.9298V123.03H17.5439V118.644ZM35.0877 118.644H39.4737V123.03H35.0877V118.644ZM43.8596 118.644H48.2456V123.03H43.8596V118.644ZM48.2456 118.644H52.6316V123.03H48.2456V118.644ZM52.6316 118.644H57.0175V123.03H52.6316V118.644ZM61.4035 118.644H65.7895V123.03H61.4035V118.644ZM74.5614 118.644H78.9474V123.03H74.5614V118.644ZM87.7193 118.644H92.1053V123.03H87.7193V118.644ZM96.4912 118.644H100.877V123.03H96.4912V118.644ZM100.877 118.644H105.263V123.03H100.877V118.644ZM105.263 118.644H109.649V123.03H105.263V118.644ZM109.649 118.644H114.035V123.03H109.649V118.644ZM114.035 118.644H118.421V123.03H114.035V118.644ZM131.579 118.644H135.965V123.03H131.579V118.644ZM140.351 118.644H144.737V123.03H140.351V118.644ZM144.737 118.644H149.123V123.03H144.737V118.644ZM153.509 118.644H157.895V123.03H153.509V118.644ZM162.281 118.644H166.667V123.03H162.281V118.644ZM175.439 118.644H179.825V123.03H175.439V118.644ZM179.825 118.644H184.211V123.03H179.825V118.644ZM184.211 118.644H188.596V123.03H184.211V118.644ZM192.982 118.644H197.368V123.03H192.982V118.644ZM197.368 118.644H201.754V123.03H197.368V118.644ZM201.754 118.644H206.14V123.03H201.754V118.644ZM206.14 118.644H210.526V123.03H206.14V118.644ZM210.526 118.644H214.912V123.03H210.526V118.644ZM228.07 118.644H232.456V123.03H228.07V118.644ZM232.456 118.644H236.842V123.03H232.456V118.644ZM236.842 118.644H241.228V123.03H236.842V118.644ZM13.1579 123.03H17.5439V127.416H13.1579V123.03ZM17.5439 123.03H21.9298V127.416H17.5439V123.03ZM26.3158 123.03H30.7018V127.416H26.3158V123.03ZM35.0877 123.03H39.4737V127.416H35.0877V123.03ZM39.4737 123.03H43.8596V127.416H39.4737V123.03ZM43.8596 123.03H48.2456V127.416H43.8596V123.03ZM48.2456 123.03H52.6316V127.416H48.2456V123.03ZM52.6316 123.03H57.0175V127.416H52.6316V123.03ZM61.4035 123.03H65.7895V127.416H61.4035V123.03ZM70.1754 123.03H74.5614V127.416H70.1754V123.03ZM83.3333 123.03H87.7193V127.416H83.3333V123.03ZM87.7193 123.03H92.1053V127.416H87.7193V123.03ZM96.4912 123.03H100.877V127.416H96.4912V123.03ZM105.263 123.03H109.649V127.416H105.263V123.03ZM109.649 123.03H114.035V127.416H109.649V123.03ZM114.035 123.03H118.421V127.416H114.035V123.03ZM122.807 123.03H127.193V127.416H122.807V123.03ZM131.579 123.03H135.965V127.416H131.579V123.03ZM135.965 123.03H140.351V127.416H135.965V123.03ZM140.351 123.03H144.737V127.416H140.351V123.03ZM153.509 123.03H157.895V127.416H153.509V123.03ZM157.895 123.03H162.281V127.416H157.895V123.03ZM162.281 123.03H166.667V127.416H162.281V123.03ZM188.596 123.03H192.982V127.416H188.596V123.03ZM192.982 123.03H197.368V127.416H192.982V123.03ZM210.526 123.03H214.912V127.416H210.526V123.03ZM219.298 123.03H223.684V127.416H219.298V123.03ZM228.07 123.03H232.456V127.416H228.07V123.03ZM232.456 123.03H236.842V127.416H232.456V123.03ZM241.228 123.03H245.614V127.416H241.228V123.03ZM245.614 123.03H250V127.416H245.614V123.03ZM4.38596 127.416H8.77193V131.802H4.38596V127.416ZM13.1579 127.416H17.5439V131.802H13.1579V127.416ZM17.5439 127.416H21.9298V131.802H17.5439V127.416ZM35.0877 127.416H39.4737V131.802H35.0877V127.416ZM39.4737 127.416H43.8596V131.802H39.4737V127.416ZM48.2456 127.416H52.6316V131.802H48.2456V127.416ZM57.0175 127.416H61.4035V131.802H57.0175V127.416ZM65.7895 127.416H70.1754V131.802H65.7895V127.416ZM78.9474 127.416H83.3333V131.802H78.9474V127.416ZM83.3333 127.416H87.7193V131.802H83.3333V127.416ZM96.4912 127.416H100.877V131.802H96.4912V127.416ZM100.877 127.416H105.263V131.802H100.877V127.416ZM105.263 127.416H109.649V131.802H105.263V127.416ZM114.035 127.416H118.421V131.802H114.035V127.416ZM131.579 127.416H135.965V131.802H131.579V127.416ZM144.737 127.416H149.123V131.802H144.737V127.416ZM149.123 127.416H153.509V131.802H149.123V127.416ZM153.509 127.416H157.895V131.802H153.509V127.416ZM157.895 127.416H162.281V131.802H157.895V127.416ZM162.281 127.416H166.667V131.802H162.281V127.416ZM175.439 127.416H179.825V131.802H175.439V127.416ZM184.211 127.416H188.596V131.802H184.211V127.416ZM192.982 127.416H197.368V131.802H192.982V127.416ZM197.368 127.416H201.754V131.802H197.368V127.416ZM201.754 127.416H206.14V131.802H201.754V127.416ZM206.14 127.416H210.526V131.802H206.14V127.416ZM210.526 127.416H214.912V131.802H210.526V127.416ZM228.07 127.416H232.456V131.802H228.07V127.416ZM232.456 127.416H236.842V131.802H232.456V127.416ZM236.842 127.416H241.228V131.802H236.842V127.416ZM245.614 127.416H250V131.802H245.614V127.416ZM4.38596 131.802H8.77193V136.188H4.38596V131.802ZM8.77193 131.802H13.1579V136.188H8.77193V131.802ZM13.1579 131.802H17.5439V136.188H13.1579V131.802ZM17.5439 131.802H21.9298V136.188H17.5439V131.802ZM21.9298 131.802H26.3158V136.188H21.9298V131.802ZM26.3158 131.802H30.7018V136.188H26.3158V131.802ZM30.7018 131.802H35.0877V136.188H30.7018V131.802ZM35.0877 131.802H39.4737V136.188H35.0877V131.802ZM39.4737 131.802H43.8596V136.188H39.4737V131.802ZM48.2456 131.802H52.6316V136.188H48.2456V131.802ZM65.7895 131.802H70.1754V136.188H65.7895V131.802ZM74.5614 131.802H78.9474V136.188H74.5614V131.802ZM83.3333 131.802H87.7193V136.188H83.3333V131.802ZM100.877 131.802H105.263V136.188H100.877V131.802ZM109.649 131.802H114.035V136.188H109.649V131.802ZM114.035 131.802H118.421V136.188H114.035V131.802ZM118.421 131.802H122.807V136.188H118.421V131.802ZM122.807 131.802H127.193V136.188H122.807V131.802ZM127.193 131.802H131.579V136.188H127.193V131.802ZM131.579 131.802H135.965V136.188H131.579V131.802ZM135.965 131.802H140.351V136.188H135.965V131.802ZM140.351 131.802H144.737V136.188H140.351V131.802ZM144.737 131.802H149.123V136.188H144.737V131.802ZM157.895 131.802H162.281V136.188H157.895V131.802ZM162.281 131.802H166.667V136.188H162.281V131.802ZM171.053 131.802H175.439V136.188H171.053V131.802ZM188.596 131.802H192.982V136.188H188.596V131.802ZM210.526 131.802H214.912V136.188H210.526V131.802ZM214.912 131.802H219.298V136.188H214.912V131.802ZM219.298 131.802H223.684V136.188H219.298V131.802ZM223.684 131.802H228.07V136.188H223.684V131.802ZM228.07 131.802H232.456V136.188H228.07V131.802ZM245.614 131.802H250V136.188H245.614V131.802ZM13.1579 136.188H17.5439V140.574H13.1579V136.188ZM35.0877 136.188H39.4737V140.574H35.0877V136.188ZM43.8596 136.188H48.2456V140.574H43.8596V136.188ZM57.0175 136.188H61.4035V140.574H57.0175V136.188ZM65.7895 136.188H70.1754V140.574H65.7895V136.188ZM70.1754 136.188H74.5614V140.574H70.1754V136.188ZM87.7193 136.188H92.1053V140.574H87.7193V136.188ZM92.1053 136.188H96.4912V140.574H92.1053V136.188ZM96.4912 136.188H100.877V140.574H96.4912V136.188ZM127.193 136.188H131.579V140.574H127.193V136.188ZM140.351 136.188H144.737V140.574H140.351V136.188ZM166.667 136.188H171.053V140.574H166.667V136.188ZM175.439 136.188H179.825V140.574H175.439V136.188ZM184.211 136.188H188.596V140.574H184.211V136.188ZM188.596 136.188H192.982V140.574H188.596V136.188ZM197.368 136.188H201.754V140.574H197.368V136.188ZM206.14 136.188H210.526V140.574H206.14V136.188ZM232.456 136.188H236.842V140.574H232.456V136.188ZM236.842 136.188H241.228V140.574H236.842V136.188ZM13.1579 140.574H17.5439V144.96H13.1579V140.574ZM17.5439 140.574H21.9298V144.96H17.5439V140.574ZM26.3158 140.574H30.7018V144.96H26.3158V140.574ZM30.7018 140.574H35.0877V144.96H30.7018V140.574ZM48.2456 140.574H52.6316V144.96H48.2456V140.574ZM52.6316 140.574H57.0175V144.96H52.6316V140.574ZM74.5614 140.574H78.9474V144.96H74.5614V140.574ZM87.7193 140.574H92.1053V144.96H87.7193V140.574ZM100.877 140.574H105.263V144.96H100.877V140.574ZM109.649 140.574H114.035V144.96H109.649V140.574ZM127.193 140.574H131.579V144.96H127.193V140.574ZM135.965 140.574H140.351V144.96H135.965V140.574ZM140.351 140.574H144.737V144.96H140.351V140.574ZM153.509 140.574H157.895V144.96H153.509V140.574ZM157.895 140.574H162.281V144.96H157.895V140.574ZM162.281 140.574H166.667V144.96H162.281V140.574ZM175.439 140.574H179.825V144.96H175.439V140.574ZM184.211 140.574H188.596V144.96H184.211V140.574ZM188.596 140.574H192.982V144.96H188.596V140.574ZM197.368 140.574H201.754V144.96H197.368V140.574ZM201.754 140.574H206.14V144.96H201.754V140.574ZM210.526 140.574H214.912V144.96H210.526V140.574ZM223.684 140.574H228.07V144.96H223.684V140.574ZM241.228 140.574H245.614V144.96H241.228V140.574ZM21.9298 144.96H26.3158V149.345H21.9298V144.96ZM35.0877 144.96H39.4737V149.345H35.0877V144.96ZM39.4737 144.96H43.8596V149.345H39.4737V144.96ZM48.2456 144.96H52.6316V149.345H48.2456V144.96ZM52.6316 144.96H57.0175V149.345H52.6316V144.96ZM57.0175 144.96H61.4035V149.345H57.0175V144.96ZM61.4035 144.96H65.7895V149.345H61.4035V144.96ZM65.7895 144.96H70.1754V149.345H65.7895V144.96ZM70.1754 144.96H74.5614V149.345H70.1754V144.96ZM74.5614 144.96H78.9474V149.345H74.5614V144.96ZM83.3333 144.96H87.7193V149.345H83.3333V144.96ZM87.7193 144.96H92.1053V149.345H87.7193V144.96ZM92.1053 144.96H96.4912V149.345H92.1053V144.96ZM96.4912 144.96H100.877V149.345H96.4912V144.96ZM100.877 144.96H105.263V149.345H100.877V144.96ZM105.263 144.96H109.649V149.345H105.263V144.96ZM114.035 144.96H118.421V149.345H114.035V144.96ZM118.421 144.96H122.807V149.345H118.421V144.96ZM122.807 144.96H127.193V149.345H122.807V144.96ZM127.193 144.96H131.579V149.345H127.193V144.96ZM131.579 144.96H135.965V149.345H131.579V144.96ZM144.737 144.96H149.123V149.345H144.737V144.96ZM149.123 144.96H153.509V149.345H149.123V144.96ZM157.895 144.96H162.281V149.345H157.895V144.96ZM162.281 144.96H166.667V149.345H162.281V144.96ZM166.667 144.96H171.053V149.345H166.667V144.96ZM171.053 144.96H175.439V149.345H171.053V144.96ZM175.439 144.96H179.825V149.345H175.439V144.96ZM179.825 144.96H184.211V149.345H179.825V144.96ZM184.211 144.96H188.596V149.345H184.211V144.96ZM188.596 144.96H192.982V149.345H188.596V144.96ZM192.982 144.96H197.368V149.345H192.982V144.96ZM201.754 144.96H206.14V149.345H201.754V144.96ZM210.526 144.96H214.912V149.345H210.526V144.96ZM223.684 144.96H228.07V149.345H223.684V144.96ZM228.07 144.96H232.456V149.345H228.07V144.96ZM241.228 144.96H245.614V149.345H241.228V144.96ZM0 149.345H4.38596V153.731H0V149.345ZM8.77193 149.345H13.1579V153.731H8.77193V149.345ZM13.1579 149.345H17.5439V153.731H13.1579V149.345ZM21.9298 149.345H26.3158V153.731H21.9298V149.345ZM26.3158 149.345H30.7018V153.731H26.3158V149.345ZM43.8596 149.345H48.2456V153.731H43.8596V149.345ZM48.2456 149.345H52.6316V153.731H48.2456V149.345ZM52.6316 149.345H57.0175V153.731H52.6316V149.345ZM78.9474 149.345H83.3333V153.731H78.9474V149.345ZM83.3333 149.345H87.7193V153.731H83.3333V149.345ZM96.4912 149.345H100.877V153.731H96.4912V149.345ZM105.263 149.345H109.649V153.731H105.263V149.345ZM114.035 149.345H118.421V153.731H114.035V149.345ZM118.421 149.345H122.807V153.731H118.421V149.345ZM127.193 149.345H131.579V153.731H127.193V149.345ZM135.965 149.345H140.351V153.731H135.965V149.345ZM149.123 149.345H153.509V153.731H149.123V149.345ZM153.509 149.345H157.895V153.731H153.509V149.345ZM175.439 149.345H179.825V153.731H175.439V149.345ZM179.825 149.345H184.211V153.731H179.825V149.345ZM188.596 149.345H192.982V153.731H188.596V149.345ZM192.982 149.345H197.368V153.731H192.982V149.345ZM201.754 149.345H206.14V153.731H201.754V149.345ZM206.14 149.345H210.526V153.731H206.14V149.345ZM210.526 149.345H214.912V153.731H210.526V149.345ZM214.912 149.345H219.298V153.731H214.912V149.345ZM219.298 149.345H223.684V153.731H219.298V149.345ZM223.684 149.345H228.07V153.731H223.684V149.345ZM232.456 149.345H236.842V153.731H232.456V149.345ZM236.842 149.345H241.228V153.731H236.842V149.345ZM245.614 149.345H250V153.731H245.614V149.345ZM4.38596 153.731H8.77193V158.117H4.38596V153.731ZM8.77193 153.731H13.1579V158.117H8.77193V153.731ZM13.1579 153.731H17.5439V158.117H13.1579V153.731ZM21.9298 153.731H26.3158V158.117H21.9298V153.731ZM30.7018 153.731H35.0877V158.117H30.7018V153.731ZM35.0877 153.731H39.4737V158.117H35.0877V153.731ZM48.2456 153.731H52.6316V158.117H48.2456V153.731ZM52.6316 153.731H57.0175V158.117H52.6316V153.731ZM57.0175 153.731H61.4035V158.117H57.0175V153.731ZM61.4035 153.731H65.7895V158.117H61.4035V153.731ZM87.7193 153.731H92.1053V158.117H87.7193V153.731ZM92.1053 153.731H96.4912V158.117H92.1053V153.731ZM100.877 153.731H105.263V158.117H100.877V153.731ZM105.263 153.731H109.649V158.117H105.263V153.731ZM109.649 153.731H114.035V158.117H109.649V153.731ZM118.421 153.731H122.807V158.117H118.421V153.731ZM135.965 153.731H140.351V158.117H135.965V153.731ZM140.351 153.731H144.737V158.117H140.351V153.731ZM149.123 153.731H153.509V158.117H149.123V153.731ZM153.509 153.731H157.895V158.117H153.509V153.731ZM162.281 153.731H166.667V158.117H162.281V153.731ZM179.825 153.731H184.211V158.117H179.825V153.731ZM192.982 153.731H197.368V158.117H192.982V153.731ZM197.368 153.731H201.754V158.117H197.368V153.731ZM206.14 153.731H210.526V158.117H206.14V153.731ZM214.912 153.731H219.298V158.117H214.912V153.731ZM219.298 153.731H223.684V158.117H219.298V153.731ZM228.07 153.731H232.456V158.117H228.07V153.731ZM236.842 153.731H241.228V158.117H236.842V153.731ZM0 158.117H4.38596V162.503H0V158.117ZM4.38596 158.117H8.77193V162.503H4.38596V158.117ZM8.77193 158.117H13.1579V162.503H8.77193V158.117ZM13.1579 158.117H17.5439V162.503H13.1579V158.117ZM17.5439 158.117H21.9298V162.503H17.5439V158.117ZM26.3158 158.117H30.7018V162.503H26.3158V158.117ZM35.0877 158.117H39.4737V162.503H35.0877V158.117ZM39.4737 158.117H43.8596V162.503H39.4737V158.117ZM48.2456 158.117H52.6316V162.503H48.2456V158.117ZM70.1754 158.117H74.5614V162.503H70.1754V158.117ZM74.5614 158.117H78.9474V162.503H74.5614V158.117ZM78.9474 158.117H83.3333V162.503H78.9474V158.117ZM96.4912 158.117H100.877V162.503H96.4912V158.117ZM105.263 158.117H109.649V162.503H105.263V158.117ZM140.351 158.117H144.737V162.503H140.351V158.117ZM144.737 158.117H149.123V162.503H144.737V158.117ZM157.895 158.117H162.281V162.503H157.895V158.117ZM175.439 158.117H179.825V162.503H175.439V158.117ZM179.825 158.117H184.211V162.503H179.825V158.117ZM184.211 158.117H188.596V162.503H184.211V158.117ZM188.596 158.117H192.982V162.503H188.596V158.117ZM192.982 158.117H197.368V162.503H192.982V158.117ZM197.368 158.117H201.754V162.503H197.368V158.117ZM210.526 158.117H214.912V162.503H210.526V158.117ZM219.298 158.117H223.684V162.503H219.298V158.117ZM236.842 158.117H241.228V162.503H236.842V158.117ZM245.614 158.117H250V162.503H245.614V158.117ZM4.38596 162.503H8.77193V166.889H4.38596V162.503ZM8.77193 162.503H13.1579V166.889H8.77193V162.503ZM13.1579 162.503H17.5439V166.889H13.1579V162.503ZM48.2456 162.503H52.6316V166.889H48.2456V162.503ZM57.0175 162.503H61.4035V166.889H57.0175V162.503ZM65.7895 162.503H70.1754V166.889H65.7895V162.503ZM78.9474 162.503H83.3333V166.889H78.9474V162.503ZM100.877 162.503H105.263V166.889H100.877V162.503ZM114.035 162.503H118.421V166.889H114.035V162.503ZM122.807 162.503H127.193V166.889H122.807V162.503ZM127.193 162.503H131.579V166.889H127.193V162.503ZM131.579 162.503H135.965V166.889H131.579V162.503ZM135.965 162.503H140.351V166.889H135.965V162.503ZM140.351 162.503H144.737V166.889H140.351V162.503ZM153.509 162.503H157.895V166.889H153.509V162.503ZM157.895 162.503H162.281V166.889H157.895V162.503ZM162.281 162.503H166.667V166.889H162.281V162.503ZM166.667 162.503H171.053V166.889H166.667V162.503ZM175.439 162.503H179.825V166.889H175.439V162.503ZM179.825 162.503H184.211V166.889H179.825V162.503ZM184.211 162.503H188.596V166.889H184.211V162.503ZM197.368 162.503H201.754V166.889H197.368V162.503ZM206.14 162.503H210.526V166.889H206.14V162.503ZM214.912 162.503H219.298V166.889H214.912V162.503ZM219.298 162.503H223.684V166.889H219.298V162.503ZM236.842 162.503H241.228V166.889H236.842V162.503ZM0 166.889H4.38596V171.275H0V166.889ZM4.38596 166.889H8.77193V171.275H4.38596V166.889ZM21.9298 166.889H26.3158V171.275H21.9298V166.889ZM26.3158 166.889H30.7018V171.275H26.3158V166.889ZM30.7018 166.889H35.0877V171.275H30.7018V166.889ZM35.0877 166.889H39.4737V171.275H35.0877V166.889ZM39.4737 166.889H43.8596V171.275H39.4737V166.889ZM48.2456 166.889H52.6316V171.275H48.2456V166.889ZM52.6316 166.889H57.0175V171.275H52.6316V166.889ZM57.0175 166.889H61.4035V171.275H57.0175V166.889ZM61.4035 166.889H65.7895V171.275H61.4035V166.889ZM65.7895 166.889H70.1754V171.275H65.7895V166.889ZM70.1754 166.889H74.5614V171.275H70.1754V166.889ZM78.9474 166.889H83.3333V171.275H78.9474V166.889ZM83.3333 166.889H87.7193V171.275H83.3333V166.889ZM87.7193 166.889H92.1053V171.275H87.7193V166.889ZM92.1053 166.889H96.4912V171.275H92.1053V166.889ZM100.877 166.889H105.263V171.275H100.877V166.889ZM105.263 166.889H109.649V171.275H105.263V166.889ZM114.035 166.889H118.421V171.275H114.035V166.889ZM118.421 166.889H122.807V171.275H118.421V166.889ZM122.807 166.889H127.193V171.275H122.807V166.889ZM127.193 166.889H131.579V171.275H127.193V166.889ZM131.579 166.889H135.965V171.275H131.579V166.889ZM135.965 166.889H140.351V171.275H135.965V166.889ZM144.737 166.889H149.123V171.275H144.737V166.889ZM166.667 166.889H171.053V171.275H166.667V166.889ZM175.439 166.889H179.825V171.275H175.439V166.889ZM192.982 166.889H197.368V171.275H192.982V166.889ZM206.14 166.889H210.526V171.275H206.14V166.889ZM214.912 166.889H219.298V171.275H214.912V166.889ZM223.684 166.889H228.07V171.275H223.684V166.889ZM228.07 166.889H232.456V171.275H228.07V166.889ZM4.38596 171.275H8.77193V175.661H4.38596V171.275ZM8.77193 171.275H13.1579V175.661H8.77193V171.275ZM21.9298 171.275H26.3158V175.661H21.9298V171.275ZM30.7018 171.275H35.0877V175.661H30.7018V171.275ZM35.0877 171.275H39.4737V175.661H35.0877V171.275ZM48.2456 171.275H52.6316V175.661H48.2456V171.275ZM65.7895 171.275H70.1754V175.661H65.7895V171.275ZM100.877 171.275H105.263V175.661H100.877V171.275ZM109.649 171.275H114.035V175.661H109.649V171.275ZM131.579 171.275H135.965V175.661H131.579V171.275ZM144.737 171.275H149.123V175.661H144.737V171.275ZM157.895 171.275H162.281V175.661H157.895V171.275ZM166.667 171.275H171.053V175.661H166.667V171.275ZM171.053 171.275H175.439V175.661H171.053V171.275ZM179.825 171.275H184.211V175.661H179.825V171.275ZM184.211 171.275H188.596V175.661H184.211V171.275ZM188.596 171.275H192.982V175.661H188.596V171.275ZM192.982 171.275H197.368V175.661H192.982V171.275ZM197.368 171.275H201.754V175.661H197.368V171.275ZM206.14 171.275H210.526V175.661H206.14V171.275ZM210.526 171.275H214.912V175.661H210.526V171.275ZM219.298 171.275H223.684V175.661H219.298V171.275ZM228.07 171.275H232.456V175.661H228.07V171.275ZM236.842 171.275H241.228V175.661H236.842V171.275ZM241.228 171.275H245.614V175.661H241.228V171.275ZM0 175.661H4.38596V180.047H0V175.661ZM4.38596 175.661H8.77193V180.047H4.38596V175.661ZM17.5439 175.661H21.9298V180.047H17.5439V175.661ZM21.9298 175.661H26.3158V180.047H21.9298V175.661ZM26.3158 175.661H30.7018V180.047H26.3158V175.661ZM30.7018 175.661H35.0877V180.047H30.7018V175.661ZM39.4737 175.661H43.8596V180.047H39.4737V175.661ZM43.8596 175.661H48.2456V180.047H43.8596V175.661ZM48.2456 175.661H52.6316V180.047H48.2456V175.661ZM52.6316 175.661H57.0175V180.047H52.6316V175.661ZM57.0175 175.661H61.4035V180.047H57.0175V175.661ZM61.4035 175.661H65.7895V180.047H61.4035V175.661ZM74.5614 175.661H78.9474V180.047H74.5614V175.661ZM83.3333 175.661H87.7193V180.047H83.3333V175.661ZM96.4912 175.661H100.877V180.047H96.4912V175.661ZM100.877 175.661H105.263V180.047H100.877V175.661ZM109.649 175.661H114.035V180.047H109.649V175.661ZM114.035 175.661H118.421V180.047H114.035V175.661ZM122.807 175.661H127.193V180.047H122.807V175.661ZM135.965 175.661H140.351V180.047H135.965V175.661ZM140.351 175.661H144.737V180.047H140.351V175.661ZM144.737 175.661H149.123V180.047H144.737V175.661ZM162.281 175.661H166.667V180.047H162.281V175.661ZM166.667 175.661H171.053V180.047H166.667V175.661ZM179.825 175.661H184.211V180.047H179.825V175.661ZM192.982 175.661H197.368V180.047H192.982V175.661ZM197.368 175.661H201.754V180.047H197.368V175.661ZM201.754 175.661H206.14V180.047H201.754V175.661ZM206.14 175.661H210.526V180.047H206.14V175.661ZM210.526 175.661H214.912V180.047H210.526V175.661ZM214.912 175.661H219.298V180.047H214.912V175.661ZM219.298 175.661H223.684V180.047H219.298V175.661ZM223.684 175.661H228.07V180.047H223.684V175.661ZM228.07 175.661H232.456V180.047H228.07V175.661ZM241.228 175.661H245.614V180.047H241.228V175.661ZM8.77193 180.047H13.1579V184.433H8.77193V180.047ZM21.9298 180.047H26.3158V184.433H21.9298V180.047ZM30.7018 180.047H35.0877V184.433H30.7018V180.047ZM39.4737 180.047H43.8596V184.433H39.4737V180.047ZM61.4035 180.047H65.7895V184.433H61.4035V180.047ZM65.7895 180.047H70.1754V184.433H65.7895V180.047ZM70.1754 180.047H74.5614V184.433H70.1754V180.047ZM74.5614 180.047H78.9474V184.433H74.5614V180.047ZM83.3333 180.047H87.7193V184.433H83.3333V180.047ZM92.1053 180.047H96.4912V184.433H92.1053V180.047ZM96.4912 180.047H100.877V184.433H96.4912V180.047ZM109.649 180.047H114.035V184.433H109.649V180.047ZM114.035 180.047H118.421V184.433H114.035V180.047ZM122.807 180.047H127.193V184.433H122.807V180.047ZM131.579 180.047H135.965V184.433H131.579V180.047ZM149.123 180.047H153.509V184.433H149.123V180.047ZM153.509 180.047H157.895V184.433H153.509V180.047ZM171.053 180.047H175.439V184.433H171.053V180.047ZM175.439 180.047H179.825V184.433H175.439V180.047ZM184.211 180.047H188.596V184.433H184.211V180.047ZM188.596 180.047H192.982V184.433H188.596V180.047ZM197.368 180.047H201.754V184.433H197.368V180.047ZM206.14 180.047H210.526V184.433H206.14V180.047ZM223.684 180.047H228.07V184.433H223.684V180.047ZM228.07 180.047H232.456V184.433H228.07V180.047ZM232.456 180.047H236.842V184.433H232.456V180.047ZM0 184.433H4.38596V188.819H0V184.433ZM13.1579 184.433H17.5439V188.819H13.1579V184.433ZM17.5439 184.433H21.9298V188.819H17.5439V184.433ZM26.3158 184.433H30.7018V188.819H26.3158V184.433ZM30.7018 184.433H35.0877V188.819H30.7018V184.433ZM35.0877 184.433H39.4737V188.819H35.0877V184.433ZM39.4737 184.433H43.8596V188.819H39.4737V184.433ZM48.2456 184.433H52.6316V188.819H48.2456V184.433ZM52.6316 184.433H57.0175V188.819H52.6316V184.433ZM57.0175 184.433H61.4035V188.819H57.0175V184.433ZM74.5614 184.433H78.9474V188.819H74.5614V184.433ZM78.9474 184.433H83.3333V188.819H78.9474V184.433ZM83.3333 184.433H87.7193V188.819H83.3333V184.433ZM87.7193 184.433H92.1053V188.819H87.7193V184.433ZM92.1053 184.433H96.4912V188.819H92.1053V184.433ZM96.4912 184.433H100.877V188.819H96.4912V184.433ZM100.877 184.433H105.263V188.819H100.877V184.433ZM105.263 184.433H109.649V188.819H105.263V184.433ZM122.807 184.433H127.193V188.819H122.807V184.433ZM131.579 184.433H135.965V188.819H131.579V184.433ZM135.965 184.433H140.351V188.819H135.965V184.433ZM166.667 184.433H171.053V188.819H166.667V184.433ZM175.439 184.433H179.825V188.819H175.439V184.433ZM179.825 184.433H184.211V188.819H179.825V184.433ZM188.596 184.433H192.982V188.819H188.596V184.433ZM192.982 184.433H197.368V188.819H192.982V184.433ZM197.368 184.433H201.754V188.819H197.368V184.433ZM201.754 184.433H206.14V188.819H201.754V184.433ZM206.14 184.433H210.526V188.819H206.14V184.433ZM210.526 184.433H214.912V188.819H210.526V184.433ZM219.298 184.433H223.684V188.819H219.298V184.433ZM223.684 184.433H228.07V188.819H223.684V184.433ZM228.07 184.433H232.456V188.819H228.07V184.433ZM236.842 184.433H241.228V188.819H236.842V184.433ZM245.614 184.433H250V188.819H245.614V184.433ZM0 188.819H4.38596V193.205H0V188.819ZM13.1579 188.819H17.5439V193.205H13.1579V188.819ZM17.5439 188.819H21.9298V193.205H17.5439V188.819ZM30.7018 188.819H35.0877V193.205H30.7018V188.819ZM35.0877 188.819H39.4737V193.205H35.0877V188.819ZM39.4737 188.819H43.8596V193.205H39.4737V188.819ZM57.0175 188.819H61.4035V193.205H57.0175V188.819ZM61.4035 188.819H65.7895V193.205H61.4035V188.819ZM65.7895 188.819H70.1754V193.205H65.7895V188.819ZM70.1754 188.819H74.5614V193.205H70.1754V188.819ZM74.5614 188.819H78.9474V193.205H74.5614V188.819ZM78.9474 188.819H83.3333V193.205H78.9474V188.819ZM83.3333 188.819H87.7193V193.205H83.3333V188.819ZM114.035 188.819H118.421V193.205H114.035V188.819ZM122.807 188.819H127.193V193.205H122.807V188.819ZM127.193 188.819H131.579V193.205H127.193V188.819ZM135.965 188.819H140.351V193.205H135.965V188.819ZM149.123 188.819H153.509V193.205H149.123V188.819ZM157.895 188.819H162.281V193.205H157.895V188.819ZM166.667 188.819H171.053V193.205H166.667V188.819ZM171.053 188.819H175.439V193.205H171.053V188.819ZM175.439 188.819H179.825V193.205H175.439V188.819ZM179.825 188.819H184.211V193.205H179.825V188.819ZM192.982 188.819H197.368V193.205H192.982V188.819ZM201.754 188.819H206.14V193.205H201.754V188.819ZM206.14 188.819H210.526V193.205H206.14V188.819ZM210.526 188.819H214.912V193.205H210.526V188.819ZM223.684 188.819H228.07V193.205H223.684V188.819ZM232.456 188.819H236.842V193.205H232.456V188.819ZM236.842 188.819H241.228V193.205H236.842V188.819ZM245.614 188.819H250V193.205H245.614V188.819ZM0 193.205H4.38596V197.591H0V193.205ZM26.3158 193.205H30.7018V197.591H26.3158V193.205ZM30.7018 193.205H35.0877V197.591H30.7018V193.205ZM35.0877 193.205H39.4737V197.591H35.0877V193.205ZM52.6316 193.205H57.0175V197.591H52.6316V193.205ZM57.0175 193.205H61.4035V197.591H57.0175V193.205ZM92.1053 193.205H96.4912V197.591H92.1053V193.205ZM100.877 193.205H105.263V197.591H100.877V193.205ZM109.649 193.205H114.035V197.591H109.649V193.205ZM122.807 193.205H127.193V197.591H122.807V193.205ZM127.193 193.205H131.579V197.591H127.193V193.205ZM131.579 193.205H135.965V197.591H131.579V193.205ZM149.123 193.205H153.509V197.591H149.123V193.205ZM153.509 193.205H157.895V197.591H153.509V193.205ZM157.895 193.205H162.281V197.591H157.895V193.205ZM162.281 193.205H166.667V197.591H162.281V193.205ZM166.667 193.205H171.053V197.591H166.667V193.205ZM175.439 193.205H179.825V197.591H175.439V193.205ZM197.368 193.205H201.754V197.591H197.368V193.205ZM210.526 193.205H214.912V197.591H210.526V193.205ZM219.298 193.205H223.684V197.591H219.298V193.205ZM223.684 193.205H228.07V197.591H223.684V193.205ZM232.456 193.205H236.842V197.591H232.456V193.205ZM245.614 193.205H250V197.591H245.614V193.205ZM0 197.591H4.38596V201.977H0V197.591ZM13.1579 197.591H17.5439V201.977H13.1579V197.591ZM17.5439 197.591H21.9298V201.977H17.5439V197.591ZM35.0877 197.591H39.4737V201.977H35.0877V197.591ZM61.4035 197.591H65.7895V201.977H61.4035V197.591ZM65.7895 197.591H70.1754V201.977H65.7895V197.591ZM92.1053 197.591H96.4912V201.977H92.1053V197.591ZM96.4912 197.591H100.877V201.977H96.4912V197.591ZM100.877 197.591H105.263V201.977H100.877V197.591ZM109.649 197.591H114.035V201.977H109.649V197.591ZM122.807 197.591H127.193V201.977H122.807V197.591ZM127.193 197.591H131.579V201.977H127.193V197.591ZM131.579 197.591H135.965V201.977H131.579V197.591ZM135.965 197.591H140.351V201.977H135.965V197.591ZM144.737 197.591H149.123V201.977H144.737V197.591ZM149.123 197.591H153.509V201.977H149.123V197.591ZM157.895 197.591H162.281V201.977H157.895V197.591ZM162.281 197.591H166.667V201.977H162.281V197.591ZM166.667 197.591H171.053V201.977H166.667V197.591ZM184.211 197.591H188.596V201.977H184.211V197.591ZM188.596 197.591H192.982V201.977H188.596V197.591ZM192.982 197.591H197.368V201.977H192.982V197.591ZM201.754 197.591H206.14V201.977H201.754V197.591ZM210.526 197.591H214.912V201.977H210.526V197.591ZM214.912 197.591H219.298V201.977H214.912V197.591ZM223.684 197.591H228.07V201.977H223.684V197.591ZM228.07 197.591H232.456V201.977H228.07V197.591ZM232.456 197.591H236.842V201.977H232.456V197.591ZM236.842 197.591H241.228V201.977H236.842V197.591ZM241.228 197.591H245.614V201.977H241.228V197.591ZM0 201.977H4.38596V206.363H0V201.977ZM8.77193 201.977H13.1579V206.363H8.77193V201.977ZM21.9298 201.977H26.3158V206.363H21.9298V201.977ZM26.3158 201.977H30.7018V206.363H26.3158V201.977ZM30.7018 201.977H35.0877V206.363H30.7018V201.977ZM35.0877 201.977H39.4737V206.363H35.0877V201.977ZM43.8596 201.977H48.2456V206.363H43.8596V201.977ZM52.6316 201.977H57.0175V206.363H52.6316V201.977ZM74.5614 201.977H78.9474V206.363H74.5614V201.977ZM78.9474 201.977H83.3333V206.363H78.9474V201.977ZM83.3333 201.977H87.7193V206.363H83.3333V201.977ZM87.7193 201.977H92.1053V206.363H87.7193V201.977ZM100.877 201.977H105.263V206.363H100.877V201.977ZM109.649 201.977H114.035V206.363H109.649V201.977ZM127.193 201.977H131.579V206.363H127.193V201.977ZM131.579 201.977H135.965V206.363H131.579V201.977ZM144.737 201.977H149.123V206.363H144.737V201.977ZM149.123 201.977H153.509V206.363H149.123V201.977ZM153.509 201.977H157.895V206.363H153.509V201.977ZM171.053 201.977H175.439V206.363H171.053V201.977ZM175.439 201.977H179.825V206.363H175.439V201.977ZM179.825 201.977H184.211V206.363H179.825V201.977ZM192.982 201.977H197.368V206.363H192.982V201.977ZM197.368 201.977H201.754V206.363H197.368V201.977ZM201.754 201.977H206.14V206.363H201.754V201.977ZM210.526 201.977H214.912V206.363H210.526V201.977ZM214.912 201.977H219.298V206.363H214.912V201.977ZM219.298 201.977H223.684V206.363H219.298V201.977ZM228.07 201.977H232.456V206.363H228.07V201.977ZM232.456 201.977H236.842V206.363H232.456V201.977ZM236.842 201.977H241.228V206.363H236.842V201.977ZM245.614 201.977H250V206.363H245.614V201.977ZM0 206.363H4.38596V210.749H0V206.363ZM4.38596 206.363H8.77193V210.749H4.38596V206.363ZM8.77193 206.363H13.1579V210.749H8.77193V206.363ZM13.1579 206.363H17.5439V210.749H13.1579V206.363ZM17.5439 206.363H21.9298V210.749H17.5439V206.363ZM30.7018 206.363H35.0877V210.749H30.7018V206.363ZM43.8596 206.363H48.2456V210.749H43.8596V206.363ZM48.2456 206.363H52.6316V210.749H48.2456V206.363ZM52.6316 206.363H57.0175V210.749H52.6316V206.363ZM57.0175 206.363H61.4035V210.749H57.0175V206.363ZM61.4035 206.363H65.7895V210.749H61.4035V206.363ZM65.7895 206.363H70.1754V210.749H65.7895V206.363ZM70.1754 206.363H74.5614V210.749H70.1754V206.363ZM83.3333 206.363H87.7193V210.749H83.3333V206.363ZM92.1053 206.363H96.4912V210.749H92.1053V206.363ZM105.263 206.363H109.649V210.749H105.263V206.363ZM118.421 206.363H122.807V210.749H118.421V206.363ZM122.807 206.363H127.193V210.749H122.807V206.363ZM131.579 206.363H135.965V210.749H131.579V206.363ZM144.737 206.363H149.123V210.749H144.737V206.363ZM149.123 206.363H153.509V210.749H149.123V206.363ZM162.281 206.363H166.667V210.749H162.281V206.363ZM184.211 206.363H188.596V210.749H184.211V206.363ZM188.596 206.363H192.982V210.749H188.596V206.363ZM192.982 206.363H197.368V210.749H192.982V206.363ZM197.368 206.363H201.754V210.749H197.368V206.363ZM219.298 206.363H223.684V210.749H219.298V206.363ZM223.684 206.363H228.07V210.749H223.684V206.363ZM232.456 206.363H236.842V210.749H232.456V206.363ZM236.842 206.363H241.228V210.749H236.842V206.363ZM241.228 206.363H245.614V210.749H241.228V206.363ZM26.3158 210.749H30.7018V215.135H26.3158V210.749ZM39.4737 210.749H43.8596V215.135H39.4737V210.749ZM52.6316 210.749H57.0175V215.135H52.6316V210.749ZM57.0175 210.749H61.4035V215.135H57.0175V210.749ZM65.7895 210.749H70.1754V215.135H65.7895V210.749ZM70.1754 210.749H74.5614V215.135H70.1754V210.749ZM74.5614 210.749H78.9474V215.135H74.5614V210.749ZM78.9474 210.749H83.3333V215.135H78.9474V210.749ZM83.3333 210.749H87.7193V215.135H83.3333V210.749ZM100.877 210.749H105.263V215.135H100.877V210.749ZM114.035 210.749H118.421V215.135H114.035V210.749ZM118.421 210.749H122.807V215.135H118.421V210.749ZM122.807 210.749H127.193V215.135H122.807V210.749ZM127.193 210.749H131.579V215.135H127.193V210.749ZM131.579 210.749H135.965V215.135H131.579V210.749ZM149.123 210.749H153.509V215.135H149.123V210.749ZM153.509 210.749H157.895V215.135H153.509V210.749ZM157.895 210.749H162.281V215.135H157.895V210.749ZM175.439 210.749H179.825V215.135H175.439V210.749ZM179.825 210.749H184.211V215.135H179.825V210.749ZM188.596 210.749H192.982V215.135H188.596V210.749ZM192.982 210.749H197.368V215.135H192.982V210.749ZM197.368 210.749H201.754V215.135H197.368V210.749ZM201.754 210.749H206.14V215.135H201.754V210.749ZM206.14 210.749H210.526V215.135H206.14V210.749ZM210.526 210.749H214.912V215.135H210.526V210.749ZM214.912 210.749H219.298V215.135H214.912V210.749ZM219.298 210.749H223.684V215.135H219.298V210.749ZM223.684 210.749H228.07V215.135H223.684V210.749ZM228.07 210.749H232.456V215.135H228.07V210.749ZM241.228 210.749H245.614V215.135H241.228V210.749ZM35.0877 215.135H39.4737V219.521H35.0877V215.135ZM39.4737 215.135H43.8596V219.521H39.4737V215.135ZM52.6316 215.135H57.0175V219.521H52.6316V215.135ZM57.0175 215.135H61.4035V219.521H57.0175V215.135ZM61.4035 215.135H65.7895V219.521H61.4035V215.135ZM70.1754 215.135H74.5614V219.521H70.1754V215.135ZM74.5614 215.135H78.9474V219.521H74.5614V215.135ZM87.7193 215.135H92.1053V219.521H87.7193V215.135ZM92.1053 215.135H96.4912V219.521H92.1053V215.135ZM96.4912 215.135H100.877V219.521H96.4912V215.135ZM100.877 215.135H105.263V219.521H100.877V215.135ZM105.263 215.135H109.649V219.521H105.263V215.135ZM109.649 215.135H114.035V219.521H109.649V215.135ZM114.035 215.135H118.421V219.521H114.035V215.135ZM131.579 215.135H135.965V219.521H131.579V215.135ZM135.965 215.135H140.351V219.521H135.965V215.135ZM144.737 215.135H149.123V219.521H144.737V215.135ZM153.509 215.135H157.895V219.521H153.509V215.135ZM157.895 215.135H162.281V219.521H157.895V215.135ZM166.667 215.135H171.053V219.521H166.667V215.135ZM171.053 215.135H175.439V219.521H171.053V215.135ZM179.825 215.135H184.211V219.521H179.825V215.135ZM184.211 215.135H188.596V219.521H184.211V215.135ZM197.368 215.135H201.754V219.521H197.368V215.135ZM206.14 215.135H210.526V219.521H206.14V215.135ZM210.526 215.135H214.912V219.521H210.526V215.135ZM228.07 215.135H232.456V219.521H228.07V215.135ZM232.456 215.135H236.842V219.521H232.456V215.135ZM236.842 215.135H241.228V219.521H236.842V215.135ZM241.228 215.135H245.614V219.521H241.228V215.135ZM0 219.521H4.38596V223.907H0V219.521ZM4.38596 219.521H8.77193V223.907H4.38596V219.521ZM8.77193 219.521H13.1579V223.907H8.77193V219.521ZM13.1579 219.521H17.5439V223.907H13.1579V219.521ZM17.5439 219.521H21.9298V223.907H17.5439V219.521ZM21.9298 219.521H26.3158V223.907H21.9298V219.521ZM26.3158 219.521H30.7018V223.907H26.3158V219.521ZM48.2456 219.521H52.6316V223.907H48.2456V219.521ZM52.6316 219.521H57.0175V223.907H52.6316V219.521ZM57.0175 219.521H61.4035V223.907H57.0175V219.521ZM70.1754 219.521H74.5614V223.907H70.1754V219.521ZM78.9474 219.521H83.3333V223.907H78.9474V219.521ZM92.1053 219.521H96.4912V223.907H92.1053V219.521ZM114.035 219.521H118.421V223.907H114.035V219.521ZM122.807 219.521H127.193V223.907H122.807V219.521ZM131.579 219.521H135.965V223.907H131.579V219.521ZM140.351 219.521H144.737V223.907H140.351V219.521ZM153.509 219.521H157.895V223.907H153.509V219.521ZM157.895 219.521H162.281V223.907H157.895V219.521ZM162.281 219.521H166.667V223.907H162.281V219.521ZM166.667 219.521H171.053V223.907H166.667V219.521ZM197.368 219.521H201.754V223.907H197.368V219.521ZM210.526 219.521H214.912V223.907H210.526V219.521ZM219.298 219.521H223.684V223.907H219.298V219.521ZM228.07 219.521H232.456V223.907H228.07V219.521ZM232.456 219.521H236.842V223.907H232.456V219.521ZM241.228 219.521H245.614V223.907H241.228V219.521ZM0 223.907H4.38596V228.293H0V223.907ZM26.3158 223.907H30.7018V228.293H26.3158V223.907ZM35.0877 223.907H39.4737V228.293H35.0877V223.907ZM61.4035 223.907H65.7895V228.293H61.4035V223.907ZM65.7895 223.907H70.1754V228.293H65.7895V223.907ZM74.5614 223.907H78.9474V228.293H74.5614V223.907ZM92.1053 223.907H96.4912V228.293H92.1053V223.907ZM105.263 223.907H109.649V228.293H105.263V223.907ZM114.035 223.907H118.421V228.293H114.035V223.907ZM131.579 223.907H135.965V228.293H131.579V223.907ZM135.965 223.907H140.351V228.293H135.965V223.907ZM144.737 223.907H149.123V228.293H144.737V223.907ZM149.123 223.907H153.509V228.293H149.123V223.907ZM171.053 223.907H175.439V228.293H171.053V223.907ZM184.211 223.907H188.596V228.293H184.211V223.907ZM206.14 223.907H210.526V228.293H206.14V223.907ZM210.526 223.907H214.912V228.293H210.526V223.907ZM228.07 223.907H232.456V228.293H228.07V223.907ZM232.456 223.907H236.842V228.293H232.456V223.907ZM236.842 223.907H241.228V228.293H236.842V223.907ZM241.228 223.907H245.614V228.293H241.228V223.907ZM245.614 223.907H250V228.293H245.614V223.907ZM0 228.293H4.38596V232.679H0V228.293ZM8.77193 228.293H13.1579V232.679H8.77193V228.293ZM13.1579 228.293H17.5439V232.679H13.1579V228.293ZM17.5439 228.293H21.9298V232.679H17.5439V228.293ZM26.3158 228.293H30.7018V232.679H26.3158V228.293ZM35.0877 228.293H39.4737V232.679H35.0877V228.293ZM39.4737 228.293H43.8596V232.679H39.4737V228.293ZM48.2456 228.293H52.6316V232.679H48.2456V228.293ZM57.0175 228.293H61.4035V232.679H57.0175V228.293ZM92.1053 228.293H96.4912V232.679H92.1053V228.293ZM96.4912 228.293H100.877V232.679H96.4912V228.293ZM100.877 228.293H105.263V232.679H100.877V228.293ZM109.649 228.293H114.035V232.679H109.649V228.293ZM114.035 228.293H118.421V232.679H114.035V228.293ZM118.421 228.293H122.807V232.679H118.421V228.293ZM122.807 228.293H127.193V232.679H122.807V228.293ZM127.193 228.293H131.579V232.679H127.193V228.293ZM131.579 228.293H135.965V232.679H131.579V228.293ZM140.351 228.293H144.737V232.679H140.351V228.293ZM144.737 228.293H149.123V232.679H144.737V228.293ZM149.123 228.293H153.509V232.679H149.123V228.293ZM157.895 228.293H162.281V232.679H157.895V228.293ZM162.281 228.293H166.667V232.679H162.281V228.293ZM166.667 228.293H171.053V232.679H166.667V228.293ZM184.211 228.293H188.596V232.679H184.211V228.293ZM188.596 228.293H192.982V232.679H188.596V228.293ZM192.982 228.293H197.368V232.679H192.982V228.293ZM197.368 228.293H201.754V232.679H197.368V228.293ZM210.526 228.293H214.912V232.679H210.526V228.293ZM214.912 228.293H219.298V232.679H214.912V228.293ZM219.298 228.293H223.684V232.679H219.298V228.293ZM223.684 228.293H228.07V232.679H223.684V228.293ZM228.07 228.293H232.456V232.679H228.07V228.293ZM232.456 228.293H236.842V232.679H232.456V228.293ZM245.614 228.293H250V232.679H245.614V228.293ZM0 232.679H4.38596V237.065H0V232.679ZM8.77193 232.679H13.1579V237.065H8.77193V232.679ZM13.1579 232.679H17.5439V237.065H13.1579V232.679ZM17.5439 232.679H21.9298V237.065H17.5439V232.679ZM26.3158 232.679H30.7018V237.065H26.3158V232.679ZM35.0877 232.679H39.4737V237.065H35.0877V232.679ZM43.8596 232.679H48.2456V237.065H43.8596V232.679ZM52.6316 232.679H57.0175V237.065H52.6316V232.679ZM70.1754 232.679H74.5614V237.065H70.1754V232.679ZM83.3333 232.679H87.7193V237.065H83.3333V232.679ZM87.7193 232.679H92.1053V237.065H87.7193V232.679ZM109.649 232.679H114.035V237.065H109.649V232.679ZM114.035 232.679H118.421V237.065H114.035V232.679ZM122.807 232.679H127.193V237.065H122.807V232.679ZM127.193 232.679H131.579V237.065H127.193V232.679ZM140.351 232.679H144.737V237.065H140.351V232.679ZM144.737 232.679H149.123V237.065H144.737V232.679ZM149.123 232.679H153.509V237.065H149.123V232.679ZM153.509 232.679H157.895V237.065H153.509V232.679ZM157.895 232.679H162.281V237.065H157.895V232.679ZM162.281 232.679H166.667V237.065H162.281V232.679ZM171.053 232.679H175.439V237.065H171.053V232.679ZM179.825 232.679H184.211V237.065H179.825V232.679ZM184.211 232.679H188.596V237.065H184.211V232.679ZM188.596 232.679H192.982V237.065H188.596V232.679ZM192.982 232.679H197.368V237.065H192.982V232.679ZM197.368 232.679H201.754V237.065H197.368V232.679ZM201.754 232.679H206.14V237.065H201.754V232.679ZM206.14 232.679H210.526V237.065H206.14V232.679ZM223.684 232.679H228.07V237.065H223.684V232.679ZM236.842 232.679H241.228V237.065H236.842V232.679ZM0 237.065H4.38596V241.451H0V237.065ZM8.77193 237.065H13.1579V241.451H8.77193V237.065ZM13.1579 237.065H17.5439V241.451H13.1579V237.065ZM17.5439 237.065H21.9298V241.451H17.5439V237.065ZM26.3158 237.065H30.7018V241.451H26.3158V237.065ZM39.4737 237.065H43.8596V241.451H39.4737V237.065ZM43.8596 237.065H48.2456V241.451H43.8596V237.065ZM48.2456 237.065H52.6316V241.451H48.2456V237.065ZM57.0175 237.065H61.4035V241.451H57.0175V237.065ZM65.7895 237.065H70.1754V241.451H65.7895V237.065ZM70.1754 237.065H74.5614V241.451H70.1754V237.065ZM74.5614 237.065H78.9474V241.451H74.5614V237.065ZM87.7193 237.065H92.1053V241.451H87.7193V237.065ZM100.877 237.065H105.263V241.451H100.877V237.065ZM105.263 237.065H109.649V241.451H105.263V237.065ZM109.649 237.065H114.035V241.451H109.649V237.065ZM114.035 237.065H118.421V241.451H114.035V237.065ZM135.965 237.065H140.351V241.451H135.965V237.065ZM140.351 237.065H144.737V241.451H140.351V237.065ZM149.123 237.065H153.509V241.451H149.123V237.065ZM157.895 237.065H162.281V241.451H157.895V237.065ZM166.667 237.065H171.053V241.451H166.667V237.065ZM175.439 237.065H179.825V241.451H175.439V237.065ZM188.596 237.065H192.982V241.451H188.596V237.065ZM192.982 237.065H197.368V241.451H192.982V237.065ZM206.14 237.065H210.526V241.451H206.14V237.065ZM210.526 237.065H214.912V241.451H210.526V237.065ZM214.912 237.065H219.298V241.451H214.912V237.065ZM228.07 237.065H232.456V241.451H228.07V237.065ZM236.842 237.065H241.228V241.451H236.842V237.065ZM241.228 237.065H245.614V241.451H241.228V237.065ZM245.614 237.065H250V241.451H245.614V237.065ZM0 241.451H4.38596V245.837H0V241.451ZM26.3158 241.451H30.7018V245.837H26.3158V241.451ZM35.0877 241.451H39.4737V245.837H35.0877V241.451ZM48.2456 241.451H52.6316V245.837H48.2456V241.451ZM52.6316 241.451H57.0175V245.837H52.6316V241.451ZM57.0175 241.451H61.4035V245.837H57.0175V241.451ZM65.7895 241.451H70.1754V245.837H65.7895V241.451ZM78.9474 241.451H83.3333V245.837H78.9474V241.451ZM83.3333 241.451H87.7193V245.837H83.3333V241.451ZM87.7193 241.451H92.1053V245.837H87.7193V241.451ZM92.1053 241.451H96.4912V245.837H92.1053V241.451ZM96.4912 241.451H100.877V245.837H96.4912V241.451ZM100.877 241.451H105.263V245.837H100.877V241.451ZM105.263 241.451H109.649V245.837H105.263V241.451ZM114.035 241.451H118.421V245.837H114.035V241.451ZM118.421 241.451H122.807V245.837H118.421V241.451ZM122.807 241.451H127.193V245.837H122.807V241.451ZM127.193 241.451H131.579V245.837H127.193V241.451ZM140.351 241.451H144.737V245.837H140.351V241.451ZM153.509 241.451H157.895V245.837H153.509V241.451ZM162.281 241.451H166.667V245.837H162.281V241.451ZM179.825 241.451H184.211V245.837H179.825V241.451ZM188.596 241.451H192.982V245.837H188.596V241.451ZM201.754 241.451H206.14V245.837H201.754V241.451ZM206.14 241.451H210.526V245.837H206.14V241.451ZM210.526 241.451H214.912V245.837H210.526V241.451ZM219.298 241.451H223.684V245.837H219.298V241.451ZM236.842 241.451H241.228V245.837H236.842V241.451ZM241.228 241.451H245.614V245.837H241.228V241.451ZM245.614 241.451H250V245.837H245.614V241.451ZM0 245.837H4.38596V250.223H0V245.837ZM4.38596 245.837H8.77193V250.223H4.38596V245.837ZM8.77193 245.837H13.1579V250.223H8.77193V245.837ZM13.1579 245.837H17.5439V250.223H13.1579V245.837ZM17.5439 245.837H21.9298V250.223H17.5439V245.837ZM21.9298 245.837H26.3158V250.223H21.9298V245.837ZM26.3158 245.837H30.7018V250.223H26.3158V245.837ZM39.4737 245.837H43.8596V250.223H39.4737V245.837ZM57.0175 245.837H61.4035V250.223H57.0175V245.837ZM61.4035 245.837H65.7895V250.223H61.4035V245.837ZM78.9474 245.837H83.3333V250.223H78.9474V245.837ZM87.7193 245.837H92.1053V250.223H87.7193V245.837ZM92.1053 245.837H96.4912V250.223H92.1053V245.837ZM96.4912 245.837H100.877V250.223H96.4912V245.837ZM100.877 245.837H105.263V250.223H100.877V245.837ZM109.649 245.837H114.035V250.223H109.649V245.837ZM114.035 245.837H118.421V250.223H114.035V245.837ZM118.421 245.837H122.807V250.223H118.421V245.837ZM135.965 245.837H140.351V250.223H135.965V245.837ZM149.123 245.837H153.509V250.223H149.123V245.837ZM153.509 245.837H157.895V250.223H153.509V245.837ZM157.895 245.837H162.281V250.223H157.895V245.837ZM197.368 245.837H201.754V250.223H197.368V245.837ZM201.754 245.837H206.14V250.223H201.754V245.837ZM206.14 245.837H210.526V250.223H206.14V245.837ZM214.912 245.837H219.298V250.223H214.912V245.837ZM223.684 245.837H228.07V250.223H223.684V245.837Z" fill="black"/>
</svg>
